<?xml version="1.0" encoding="UTF-8" standalone="no"?>
<!-- Created with Inkscape (http://www.inkscape.org/) -->

<svg
   width="210mm"
   height="297mm"
   viewBox="0 0 210 297"
   version="1.1"
   id="svg1"
   inkscape:version="1.3.2 (091e20e, 2023-11-25, custom)"
   sodipodi:docname="prizm.svg"
   xml:space="preserve"
   xmlns:inkscape="http://www.inkscape.org/namespaces/inkscape"
   xmlns:sodipodi="http://sodipodi.sourceforge.net/DTD/sodipodi-0.dtd"
   xmlns="http://www.w3.org/2000/svg"
   xmlns:svg="http://www.w3.org/2000/svg"><sodipodi:namedview
     id="namedview1"
     pagecolor="#ffffff"
     bordercolor="#000000"
     borderopacity="0.25"
     inkscape:showpageshadow="2"
     inkscape:pageopacity="0.0"
     inkscape:pagecheckerboard="0"
     inkscape:deskcolor="#d1d1d1"
     inkscape:document-units="mm"
     inkscape:zoom="1.4142136"
     inkscape:cx="1352.3417"
     inkscape:cy="2617.3558"
     inkscape:window-width="3840"
     inkscape:window-height="2137"
     inkscape:window-x="-8"
     inkscape:window-y="-8"
     inkscape:window-maximized="1"
     inkscape:current-layer="layer1"
     showgrid="false"
     showguides="true" /><defs
     id="defs1"><marker
       style="overflow:visible"
       id="Dot"
       refX="0"
       refY="0"
       orient="auto"
       inkscape:stockid="Dot"
       markerWidth="0.6"
       markerHeight="0.6"
       viewBox="0 0 1 1"
       inkscape:isstock="true"
       inkscape:collect="always"
       preserveAspectRatio="xMidYMid"><path
         transform="scale(0.5)"
         style="fill:context-stroke;fill-rule:evenodd;stroke:none"
         d="M 5,0 C 5,2.76 2.76,5 0,5 -2.76,5 -5,2.76 -5,0 c 0,-2.76 2.3,-5 5,-5 2.76,0 5,2.24 5,5 z"
         sodipodi:nodetypes="sssss"
         id="path65" /></marker><marker
       markerWidth="0.52499998"
       markerHeight="0.99999995"
       refX="0"
       refY="0"
       orient="auto-start-reverse"
       id="marker58"
       viewBox="0 0 0.525 1"
       inkscape:stockid="Triangle cap"
       style="overflow:visible"
       preserveAspectRatio="xMidYMid"
       inkscape:isstock="true"
       inkscape:collect="always"><path
         style="fill:context-stroke;stroke-linecap:butt"
         d="M 0,-1 1,0 0,1 -0.05,0 Z"
         sodipodi:nodetypes="sssssscsss"
         transform="scale(0.5)"
         id="path58" /></marker><marker
       markerWidth="0.52499998"
       markerHeight="0.99999995"
       refX="0"
       refY="0"
       orient="auto-start-reverse"
       id="CapTriangle"
       viewBox="0 0 0.525 1"
       inkscape:stockid="Triangle cap"
       style="overflow:visible"
       preserveAspectRatio="xMidYMid"
       inkscape:isstock="true"
       inkscape:collect="always"><path
         style="fill:context-stroke;stroke-linecap:butt"
         d="M 0,-1 1,0 0,1 -0.05,0 Z"
         sodipodi:nodetypes="sssssscsss"
         transform="scale(0.5)"
         id="path61" /></marker><marker
       style="overflow:visible"
       id="ArrowWide"
       refX="0"
       refY="0"
       orient="auto-start-reverse"
       inkscape:stockid="Wide arrow"
       markerWidth="3"
       markerHeight="3"
       viewBox="0 0 1 1"
       inkscape:isstock="true"
       inkscape:collect="always"
       preserveAspectRatio="xMidYMid"
       markerUnits="userSpaceOnUse"><path
         style="fill:none;stroke:context-stroke;stroke-width:1;stroke-linecap:butt"
         d="M 3,-3 0,0 3,3"
         transform="rotate(180,0.125,0)"
         sodipodi:nodetypes="ccc"
         id="path1" /></marker><marker
       style="overflow:visible"
       id="ArrowTriangleStylized"
       refX="0"
       refY="0"
       orient="auto-start-reverse"
       inkscape:stockid="Stylized triangle arrow"
       markerWidth="4"
       markerHeight="4"
       viewBox="0 0 1 1"
       inkscape:isstock="true"
       inkscape:collect="always"
       preserveAspectRatio="xMidYMid"
       markerUnits="userSpaceOnUse"><path
         transform="scale(0.5)"
         style="fill:context-stroke;fill-rule:evenodd;stroke:context-stroke;stroke-width:1pt"
         d="m 6,0 c -3,1 -7,3 -9,5 0,0 0,-4 2,-5 -2,-1 -2,-5 -2,-5 2,2 6,4 9,5 z"
         id="path55" /></marker><rect
       x="-1606"
       y="2591.5"
       width="446.5"
       height="261.5"
       id="rect30" /><rect
       x="-884"
       y="-194"
       width="1062.8596"
       height="1410"
       id="rect160" /><marker
       style="overflow:visible"
       id="ArrowWide-6"
       refX="0"
       refY="0"
       orient="auto-start-reverse"
       inkscape:stockid="Wide arrow"
       markerWidth="3"
       markerHeight="3"
       viewBox="0 0 1 1"
       inkscape:isstock="true"
       inkscape:collect="always"
       preserveAspectRatio="xMidYMid"
       markerUnits="userSpaceOnUse"><path
         style="fill:none;stroke:context-stroke;stroke-width:1;stroke-linecap:butt"
         d="M 3,-3 0,0 3,3"
         transform="rotate(180,0.125,0)"
         sodipodi:nodetypes="ccc"
         id="path1-6" /></marker></defs><g
     inkscape:label="Layer 1"
     inkscape:groupmode="layer"
     id="layer1"><g
       id="g303"
       transform="translate(367.05056,-88.471339)"><rect
         style="fill:none;fill-opacity:1;stroke:#000000;stroke-width:0.1;stroke-linecap:square;stroke-linejoin:bevel;stroke-dasharray:none;stroke-opacity:1"
         id="rect137"
         width="59.444225"
         height="59.444225"
         x="-497.7019"
         y="591.0553"
         inkscape:export-filename="maximize.png"
         inkscape:export-xdpi="109.20287"
         inkscape:export-ydpi="109.20287" /><g
         id="g154"
         transform="translate(-414.59749,361.03183)"
         inkscape:export-filename="maximize.png"
         inkscape:export-xdpi="109.20287"
         inkscape:export-ydpi="109.20287"
         style="fill:#ffffff"><rect
           style="fill:#ffffff;fill-opacity:1;stroke:none;stroke-width:0.126868;stroke-linecap:square;stroke-linejoin:bevel;stroke-dasharray:none;stroke-opacity:1"
           id="rect146"
           width="4.2541246"
           height="41.921371"
           x="69.947235"
           y="-280.70624"
           transform="scale(-1)" /><rect
           style="fill:#ffffff;fill-opacity:1;stroke:none;stroke-width:0.126438;stroke-linecap:square;stroke-linejoin:bevel;stroke-dasharray:none;stroke-opacity:1"
           id="rect147"
           width="4.2541246"
           height="41.638035"
           x="-280.70624"
           y="-74.201355"
           transform="rotate(-90)" /><rect
           style="fill:#ffffff;fill-opacity:1;stroke:none;stroke-width:0.126868;stroke-linecap:square;stroke-linejoin:bevel;stroke-dasharray:none;stroke-opacity:1"
           id="rect150"
           width="4.2541246"
           height="41.921364"
           x="-36.817444"
           y="238.78487" /><rect
           style="fill:#ffffff;fill-opacity:1;stroke:none;stroke-width:0.126438;stroke-linecap:square;stroke-linejoin:bevel;stroke-dasharray:none;stroke-opacity:1"
           id="rect151"
           width="4.2541246"
           height="41.638031"
           x="238.78487"
           y="32.563324"
           transform="rotate(90)" /></g></g><g
       id="g301"
       transform="translate(326.08231,-100.89718)"><g
         id="g300"
         transform="translate(33.96661,12.425845)"><rect
           style="fill:none;fill-opacity:1;stroke:#000000;stroke-width:0.1;stroke-linecap:square;stroke-linejoin:bevel;stroke-dasharray:none;stroke-opacity:1"
           id="rect135"
           width="59.444225"
           height="59.444225"
           x="-646.59082"
           y="591.0553"
           inkscape:export-filename="minimize.png"
           inkscape:export-xdpi="109.20287"
           inkscape:export-ydpi="109.20287" /><rect
           style="fill:#ffffff;fill-opacity:1;stroke:none;stroke-width:0.126438;stroke-linecap:square;stroke-linejoin:bevel;stroke-dasharray:none;stroke-opacity:1"
           id="rect154"
           width="4.2541246"
           height="41.638035"
           x="-622.90448"
           y="-637.68774"
           transform="rotate(-90)" /></g></g><text
       xml:space="preserve"
       style="font-style:normal;font-weight:normal;font-size:10.5833px;line-height:1.25;font-family:sans-serif;fill:#000000;fill-opacity:1;stroke:none;stroke-width:0.264583"
       x="-562.33313"
       y="513.01495"
       id="text155"><tspan
         sodipodi:role="line"
         id="tspan155"
         style="stroke-width:0.264583"
         x="-562.33313"
         y="513.01495">when exporting these as 256x256 squares:</tspan><tspan
         sodipodi:role="line"
         style="stroke-width:0.264583"
         x="-562.33313"
         y="526.24408"
         id="tspan156">- select the containing cell as well as the icon</tspan><tspan
         sodipodi:role="line"
         style="stroke-width:0.264583"
         x="-562.33313"
         y="539.47321"
         id="tspan158">- set the cell stroke to none before the export</tspan><tspan
         sodipodi:role="line"
         style="stroke-width:0.264583"
         x="-562.33313"
         y="552.70233"
         id="tspan160">- set the cell stroke to fill after the export</tspan></text><text
       xml:space="preserve"
       transform="scale(0.26458333)"
       id="text160"
       style="font-style:normal;font-weight:normal;font-size:40px;line-height:1.25;font-family:sans-serif;white-space:pre;shape-inside:url(#rect160);display:inline;fill:#000000;fill-opacity:1;stroke:none" /><g
       id="g302"
       transform="translate(374.97178,-88.471339)"><rect
         style="fill:none;fill-opacity:1;stroke:#000000;stroke-width:0.1;stroke-linecap:square;stroke-linejoin:bevel;stroke-dasharray:none;stroke-opacity:1"
         id="rect57"
         width="59.444225"
         height="59.444225"
         x="-427.67786"
         y="591.0553"
         inkscape:export-filename="close.png"
         inkscape:export-xdpi="109.20287"
         inkscape:export-ydpi="109.20287" /><path
         id="rect127"
         style="fill:#ffffff;stroke-width:0.224893;stroke-linecap:square;stroke-linejoin:bevel"
         d="m -383.31126,598.51958 7.61327,7.61324 -36.90233,36.90234 -7.61327,-7.61324 z" /><path
         id="path165"
         style="fill:#ffffff;stroke-width:0.224893;stroke-linecap:square;stroke-linejoin:bevel"
         d="m -375.69801,635.42192 -7.61322,7.61324 -36.90234,-36.90234 7.61322,-7.61324 z" /></g><path
       d="m 25.23909,502.63374 v 59.44443 h 59.44444 v -59.44443 z m 15.07763,7.46415 14.64459,14.64458 14.64458,-14.64458 7.61349,7.61348 -14.64458,14.64458 14.64458,14.64459 -7.61349,7.61297 -14.64458,-14.64459 -14.64459,14.64459 -7.61297,-7.61297 14.64459,-14.64459 -14.64459,-14.64458 z"
       style="fill:#ffffff;fill-opacity:1;stroke:none;stroke-width:0.1;stroke-linecap:square;stroke-linejoin:bevel"
       id="path170"
       inkscape:export-filename="close_hovered.png"
       inkscape:export-xdpi="109.20287"
       inkscape:export-ydpi="109.20287" /><g
       id="g304"
       transform="translate(366.64361,-88.471339)"><rect
         style="fill:none;fill-opacity:1;stroke:#000000;stroke-width:0.1;stroke-linecap:square;stroke-linejoin:bevel;stroke-dasharray:none;stroke-opacity:1"
         id="rect136"
         width="59.444225"
         height="59.444225"
         x="-575.24023"
         y="591.0553"
         inkscape:export-filename="restore.png"
         inkscape:export-xdpi="109.20287"
         inkscape:export-ydpi="109.20287" /><g
         id="g202"
         transform="translate(-300.5801,128.24802)"><rect
           style="fill:#ffffff;fill-opacity:1;stroke:none;stroke-width:0.114047;stroke-linecap:square;stroke-linejoin:bevel;stroke-dasharray:none;stroke-opacity:1"
           id="rect192"
           width="4.2541246"
           height="33.876575"
           x="263.28592"
           y="-515.12708"
           transform="scale(-1)" /><rect
           style="fill:#ffffff;fill-opacity:1;stroke:none;stroke-width:0.114047;stroke-linecap:square;stroke-linejoin:bevel;stroke-dasharray:none;stroke-opacity:1"
           id="rect196"
           width="4.2541246"
           height="33.876575"
           x="-515.12708"
           y="-267.54004"
           transform="rotate(-90)" /><rect
           style="fill:#ffffff;fill-opacity:1;stroke:none;stroke-width:0.114047;stroke-linecap:square;stroke-linejoin:bevel;stroke-dasharray:none;stroke-opacity:1"
           id="rect197"
           width="4.2541246"
           height="33.876575"
           x="-237.91759"
           y="481.25052" /><rect
           style="fill:#ffffff;fill-opacity:1;stroke:none;stroke-width:0.114047;stroke-linecap:square;stroke-linejoin:bevel;stroke-dasharray:none;stroke-opacity:1"
           id="rect198"
           width="4.2541246"
           height="33.876575"
           x="-485.50464"
           y="-267.54004"
           transform="rotate(-90)" /><rect
           style="fill:#ffffff;fill-opacity:1;stroke:none;stroke-width:0.114047;stroke-linecap:square;stroke-linejoin:bevel;stroke-dasharray:none;stroke-opacity:1"
           id="rect199"
           width="4.2541246"
           height="33.876575"
           x="-474.18576"
           y="-256.22116"
           transform="rotate(-90)" /><rect
           style="fill:#ffffff;fill-opacity:1;stroke:none;stroke-width:0.115962;stroke-linecap:square;stroke-linejoin:bevel;stroke-dasharray:none;stroke-opacity:1"
           id="rect200"
           width="4.2541246"
           height="35.023582"
           x="-226.59029"
           y="469.93164" /><rect
           style="fill:#ffffff;fill-opacity:1;stroke:none;stroke-width:0.0773251;stroke-linecap:square;stroke-linejoin:bevel;stroke-dasharray:none;stroke-opacity:1"
           id="rect201"
           width="4.2541246"
           height="15.572998"
           x="500.70111"
           y="222.34459"
           transform="rotate(90)" /><rect
           style="fill:#ffffff;fill-opacity:1;stroke:none;stroke-width:0.0773251;stroke-linecap:square;stroke-linejoin:bevel;stroke-dasharray:none;stroke-opacity:1"
           id="rect202"
           width="4.2541246"
           height="15.572998"
           x="251.96704"
           y="-485.50464"
           transform="scale(-1)" /></g></g><g
       id="g149"
       transform="translate(636.91692,-141.74671)"><path
         sodipodi:type="star"
         style="font-variation-settings:normal;fill:#ffffff;fill-opacity:1;stroke:none;stroke-width:1.41111;stroke-linecap:butt;stroke-linejoin:bevel;stroke-miterlimit:4;stroke-dasharray:none;stroke-dashoffset:0;stroke-opacity:1"
         id="path22"
         inkscape:flatsided="false"
         sodipodi:sides="3"
         sodipodi:cx="35.586456"
         sodipodi:cy="264.31876"
         sodipodi:r1="25.427889"
         sodipodi:r2="12.713946"
         sodipodi:arg1="0.52359878"
         sodipodi:arg2="1.5707963"
         inkscape:rounded="0"
         inkscape:randomized="0"
         d="m 57.607654,277.0327 -22.021197,0 -22.021198,0 11.010597,-19.07092 11.0106,-19.07091 11.010601,19.07091 z"
         inkscape:transform-center-y="-5.5337727"
         transform="matrix(0.87050406,0,0,0.87050406,-480.51193,323.28949)"
         inkscape:transform-center-x="1.7406213e-06"
         inkscape:export-filename=".\icon.png"
         inkscape:export-xdpi="109.20287"
         inkscape:export-ydpi="109.20287" /><path
         d="m -449.53385,531.24484 6.38979,11.06754 -6.38979,11.06754 -6.38979,11.06754 h 12.77958 l 3.19515,-5.53351 3.19464,-5.53402 1.59783,2.76728 1.59732,2.76675 3.19464,5.533 9.58494,-16.60054 9.58495,-16.60157 h -19.16989 z"
         style="fill:#6699ff;fill-opacity:1;stroke-width:2.11667;stroke-linejoin:bevel"
         id="path23" /></g><rect
       style="fill:none;fill-opacity:1;stroke:#000000;stroke-width:0.1;stroke-linecap:square;stroke-linejoin:bevel;stroke-dasharray:none;stroke-opacity:1"
       id="rect26"
       width="59.444225"
       height="59.444225"
       x="104.20224"
       y="502.25964"
       inkscape:export-filename="icon_white.png"
       inkscape:export-xdpi="109.20287"
       inkscape:export-ydpi="109.20287" /><path
       d="m 113.264,510.51105 8.26401,14.3138 -8.26401,14.3138 -8.264,14.3138 h 16.52801 l 4.13233,-7.15656 4.13167,-7.15724 2.06649,3.57896 2.06584,3.57828 4.13167,7.1559 12.39633,-21.4697 12.39635,-21.47104 h -24.79268 z"
       style="fill:#ffffff;fill-opacity:1;stroke:none;stroke-width:2.73752;stroke-linejoin:bevel"
       id="path26" /><g
       id="g148"
       transform="translate(269.7002,-111.87179)"><path
         sodipodi:type="star"
         style="font-variation-settings:normal;fill:#3366cc;fill-opacity:1;stroke:none;stroke-width:1.41111;stroke-linecap:butt;stroke-linejoin:bevel;stroke-miterlimit:4;stroke-dasharray:none;stroke-dashoffset:0;stroke-opacity:1"
         id="path129-3"
         inkscape:flatsided="false"
         sodipodi:sides="3"
         sodipodi:cx="35.586456"
         sodipodi:cy="264.31876"
         sodipodi:r1="25.427889"
         sodipodi:r2="12.713946"
         sodipodi:arg1="0.52359878"
         sodipodi:arg2="1.5707963"
         inkscape:rounded="0"
         inkscape:randomized="0"
         d="m 57.607654,277.0327 -22.021197,0 -22.021198,0 11.010597,-19.07092 11.0106,-19.07091 11.010601,19.07091 z"
         transform="matrix(0.26763131,0.46355103,-0.46355103,0.26763131,-137.10693,454.14185)"
         inkscape:export-filename="prizm_banner.png"
         inkscape:export-xdpi="109.20287"
         inkscape:export-ydpi="109.20287"
         inkscape:transform-center-y="3.1452886"
         inkscape:transform-center-x="6.8453662e-06" /><path
         d="m -340.65764,529.14936 6.38979,11.0676 -6.38979,11.0675 -6.38979,11.0675 h 12.77958 l 3.19515,-5.5335 3.19464,-5.534 1.59783,2.7673 1.59732,2.7667 3.19464,5.533 9.58494,-16.6005 9.58495,-16.6016 h -19.16989 z"
         style="fill:#6699ff;fill-opacity:1;stroke-width:2.11667;stroke-linejoin:bevel"
         id="path130-5" /><path
         sodipodi:type="star"
         style="font-variation-settings:normal;fill:#cc0000;fill-opacity:1;stroke:none;stroke-width:1.41111;stroke-linecap:butt;stroke-linejoin:bevel;stroke-miterlimit:4;stroke-dasharray:none;stroke-dashoffset:0;stroke-opacity:1"
         id="path131-8"
         inkscape:flatsided="false"
         sodipodi:sides="3"
         sodipodi:cx="35.586456"
         sodipodi:cy="264.31876"
         sodipodi:r1="25.427889"
         sodipodi:r2="12.713946"
         sodipodi:arg1="0.52359878"
         sodipodi:arg2="1.5707963"
         inkscape:rounded="0"
         inkscape:randomized="0"
         d="m 57.607654,277.0327 -22.021197,0 -22.021198,0 11.010597,-19.07092 11.0106,-19.07091 11.010601,19.07091 z"
         transform="matrix(-0.29823434,0.51655704,-0.51655704,-0.29823434,-159.02592,619.99766)"
         inkscape:export-filename=".\icon.png"
         inkscape:export-xdpi="109.20287"
         inkscape:export-ydpi="109.20287"
         inkscape:transform-center-y="-3.117606"
         inkscape:transform-center-x="1.2657369e-06" /><path
         sodipodi:type="star"
         style="font-variation-settings:normal;fill:#3366cc;fill-opacity:1;stroke:none;stroke-width:1.41111;stroke-linecap:butt;stroke-linejoin:bevel;stroke-miterlimit:4;stroke-dasharray:none;stroke-dashoffset:0;stroke-opacity:1"
         id="path132-8"
         inkscape:flatsided="false"
         sodipodi:sides="3"
         sodipodi:cx="35.586456"
         sodipodi:cy="264.31876"
         sodipodi:r1="25.427889"
         sodipodi:r2="12.713946"
         sodipodi:arg1="0.52359878"
         sodipodi:arg2="1.5707963"
         inkscape:rounded="0"
         inkscape:randomized="0"
         d="m 57.607654,277.0327 -22.021197,0 -22.021198,0 11.010597,-19.07092 11.0106,-19.07091 11.010601,19.07091 z"
         transform="matrix(0.3525549,0.61064301,-0.61064301,0.3525549,-110.97971,433.22386)"
         inkscape:export-filename=".\icon.png"
         inkscape:export-xdpi="109.20287"
         inkscape:export-ydpi="109.20287"
         inkscape:transform-center-y="4.1434713"
         inkscape:transform-center-x="-5.549485e-06" /><path
         sodipodi:type="star"
         style="font-variation-settings:normal;fill:#669900;fill-opacity:1;stroke:none;stroke-width:1.41111;stroke-linecap:butt;stroke-linejoin:bevel;stroke-miterlimit:4;stroke-dasharray:none;stroke-dashoffset:0;stroke-opacity:1"
         id="path133-7"
         inkscape:flatsided="false"
         sodipodi:sides="3"
         sodipodi:cx="35.586456"
         sodipodi:cy="264.31876"
         sodipodi:r1="25.427889"
         sodipodi:r2="12.713946"
         sodipodi:arg1="0.52359878"
         sodipodi:arg2="1.5707963"
         inkscape:rounded="0"
         inkscape:randomized="0"
         d="m 57.607654,277.0327 -22.021197,0 -22.021198,0 11.010597,-19.07092 11.0106,-19.07091 11.010601,19.07091 z"
         transform="matrix(-0.28170014,0.48791895,-0.48791895,-0.28170014,-135.99785,619.26756)"
         inkscape:export-filename=".\icon.png"
         inkscape:export-xdpi="109.20287"
         inkscape:export-ydpi="109.20287"
         inkscape:transform-center-y="-2.9447667" /><path
         sodipodi:type="star"
         style="font-variation-settings:normal;fill:#ff9900;fill-opacity:1;stroke:none;stroke-width:1.41111;stroke-linecap:butt;stroke-linejoin:bevel;stroke-miterlimit:4;stroke-dasharray:none;stroke-dashoffset:0;stroke-opacity:1"
         id="path134-6"
         inkscape:flatsided="false"
         sodipodi:sides="3"
         sodipodi:cx="35.586456"
         sodipodi:cy="264.31876"
         sodipodi:r1="25.427889"
         sodipodi:r2="12.713946"
         sodipodi:arg1="0.52359878"
         sodipodi:arg2="1.5707963"
         inkscape:rounded="0"
         inkscape:randomized="0"
         d="m 57.607654,277.0327 -22.021197,0 -22.021198,0 11.010597,-19.07092 11.0106,-19.07091 11.010601,19.07091 z"
         transform="matrix(0.13411962,-0.50054123,0.50054123,0.13411962,-424.84974,525.40806)"
         inkscape:export-filename=".\icon.png"
         inkscape:export-xdpi="109.20287"
         inkscape:export-ydpi="109.20287"
         inkscape:transform-center-y="1.7052093"
         inkscape:transform-center-x="1.7051856" /><path
         sodipodi:type="star"
         style="font-variation-settings:normal;fill:#ff9900;fill-opacity:1;stroke:none;stroke-width:1.41111;stroke-linecap:butt;stroke-linejoin:bevel;stroke-miterlimit:4;stroke-dasharray:none;stroke-dashoffset:0;stroke-opacity:1"
         id="path135-5"
         inkscape:flatsided="false"
         sodipodi:sides="3"
         sodipodi:cx="35.586456"
         sodipodi:cy="264.31876"
         sodipodi:r1="25.427889"
         sodipodi:r2="12.713946"
         sodipodi:arg1="0.52359878"
         sodipodi:arg2="1.5707963"
         inkscape:rounded="0"
         inkscape:randomized="0"
         d="m 57.607654,277.0327 -22.021197,0 -22.021198,0 11.010597,-19.07092 11.0106,-19.07091 11.010601,19.07091 z"
         transform="matrix(-0.25909921,0.44877299,-0.44877299,-0.25909921,-159.93501,609.92926)"
         inkscape:export-filename=".\icon.png"
         inkscape:export-xdpi="109.20287"
         inkscape:export-ydpi="109.20287"
         inkscape:transform-center-y="-3.2941843"
         inkscape:transform-center-x="1.5297653e-06" /><path
         sodipodi:type="star"
         style="font-variation-settings:normal;fill:#ff6600;fill-opacity:1;stroke:none;stroke-width:1.41111;stroke-linecap:butt;stroke-linejoin:bevel;stroke-miterlimit:4;stroke-dasharray:none;stroke-dashoffset:0;stroke-opacity:1"
         id="path136-5"
         inkscape:flatsided="false"
         sodipodi:sides="3"
         sodipodi:cx="35.586456"
         sodipodi:cy="264.31876"
         sodipodi:r1="25.427889"
         sodipodi:r2="12.713946"
         sodipodi:arg1="0.52359878"
         sodipodi:arg2="1.5707963"
         inkscape:rounded="0"
         inkscape:randomized="0"
         d="m 57.607654,277.0327 -22.021197,0 -22.021198,0 11.010597,-19.07092 11.0106,-19.07091 11.010601,19.07091 z"
         transform="matrix(-0.25978421,-0.25978421,0.25978421,-0.25978421,-354.24139,607.48766)"
         inkscape:export-filename=".\icon.png"
         inkscape:export-xdpi="109.20287"
         inkscape:export-ydpi="109.20287"
         inkscape:transform-center-x="-1.2089295"
         inkscape:transform-center-y="-1.2089768" /><path
         sodipodi:type="star"
         style="font-variation-settings:normal;fill:#669900;fill-opacity:1;stroke:none;stroke-width:1.41111;stroke-linecap:butt;stroke-linejoin:bevel;stroke-miterlimit:4;stroke-dasharray:none;stroke-dashoffset:0;stroke-opacity:1"
         id="path137-7"
         inkscape:flatsided="false"
         sodipodi:sides="3"
         sodipodi:cx="35.586456"
         sodipodi:cy="264.31876"
         sodipodi:r1="25.427889"
         sodipodi:r2="12.713946"
         sodipodi:arg1="0.52359878"
         sodipodi:arg2="1.5707963"
         inkscape:rounded="0"
         inkscape:randomized="0"
         d="m 57.607654,277.0327 -22.021197,0 -22.021198,0 11.010597,-19.07092 11.0106,-19.07091 11.010601,19.07091 z"
         transform="matrix(0.28170014,0.48791895,-0.48791895,0.28170014,-150.65742,462.47276)"
         inkscape:export-filename=".\icon.png"
         inkscape:export-xdpi="109.20287"
         inkscape:export-ydpi="109.20287"
         inkscape:transform-center-y="2.94474" /><path
         sodipodi:type="star"
         style="font-variation-settings:normal;fill:#cc0000;fill-opacity:1;stroke:none;stroke-width:1.41111;stroke-linecap:butt;stroke-linejoin:bevel;stroke-miterlimit:4;stroke-dasharray:none;stroke-dashoffset:0;stroke-opacity:1"
         id="path138-9"
         inkscape:flatsided="false"
         sodipodi:sides="3"
         sodipodi:cx="35.586456"
         sodipodi:cy="264.31876"
         sodipodi:r1="25.427889"
         sodipodi:r2="12.713946"
         sodipodi:arg1="0.52359878"
         sodipodi:arg2="1.5707963"
         inkscape:rounded="0"
         inkscape:randomized="0"
         d="m 57.607654,277.0327 -22.021197,0 -22.021198,0 11.010597,-19.07092 11.0106,-19.07091 11.010601,19.07091 z"
         transform="matrix(0.51655704,-0.29823434,0.29823434,0.51655704,-401.07259,423.75856)"
         inkscape:export-filename=".\icon.png"
         inkscape:export-xdpi="109.20287"
         inkscape:export-ydpi="109.20287"
         inkscape:transform-center-y="6.658221e-06"
         inkscape:transform-center-x="-3.117587" /></g><rect
       style="fill:none;fill-opacity:1;stroke:#000000;stroke-width:0.1;stroke-linecap:square;stroke-linejoin:bevel;stroke-dasharray:none;stroke-opacity:1;opacity:0"
       id="rect148"
       width="59.444225"
       height="59.444225"
       x="178.66353"
       y="502.63385"
       inkscape:export-filename="icon_blue.png"
       inkscape:export-xdpi="109.20287"
       inkscape:export-ydpi="109.20287" /><path
       d="m 187.72529,510.88523 8.26401,14.3138 -8.26401,14.3138 -8.264,14.3138 h 16.52801 l 4.13233,-7.15656 4.13167,-7.15724 2.06649,3.57896 2.06584,3.57828 4.13167,7.1559 12.39633,-21.4697 12.39635,-21.47104 H 212.5173 Z"
       style="fill:#6699ff;fill-opacity:1;stroke:none;stroke-width:2.73752;stroke-linejoin:bevel"
       id="path148" /><rect
       style="opacity:0;fill:none;fill-opacity:1;stroke:#000000;stroke-width:0.140846;stroke-linecap:square;stroke-linejoin:bevel;stroke-dasharray:none;stroke-opacity:1"
       id="rect148-9"
       width="83.724907"
       height="83.724907"
       x="348.00757"
       y="708.6347"
       inkscape:export-filename="icon_discord.png"
       inkscape:export-xdpi="155.06688"
       inkscape:export-ydpi="155.06688" /><path
       d="m 369.20968,729.02638 8.26401,14.3138 -8.26401,14.3138 -8.264,14.3138 h 16.52801 l 4.13233,-7.15656 4.13167,-7.15724 2.06649,3.57896 2.06584,3.57828 4.13167,7.1559 12.39633,-21.4697 12.39635,-21.47104 h -24.79268 z"
       style="fill:#6699ff;fill-opacity:1;stroke:none;stroke-width:2.73752;stroke-linejoin:bevel"
       id="path148-6" /><g
       id="g28"
       inkscape:export-filename="logo.png"
       inkscape:export-xdpi="109.20287"
       inkscape:export-ydpi="109.20287"><path
         d="m -70.95744,360.44045 6.38979,11.06754 -6.38979,11.06754 -6.38979,11.06754 h 12.77958 l 3.19515,-5.53351 3.19464,-5.53402 1.59783,2.76728 1.59732,2.76675 3.19464,5.533 9.58494,-16.60054 9.58495,-16.60157 h -19.16989 z"
         style="fill:#6699ff;fill-opacity:1;stroke-width:2.11667;stroke-linejoin:bevel"
         id="path14" /><g
         id="g27"
         transform="translate(0,-363.75381)"><path
           sodipodi:type="star"
           style="font-variation-settings:normal;fill:#3366cc;fill-opacity:1;stroke:none;stroke-width:1.41111;stroke-linecap:butt;stroke-linejoin:bevel;stroke-miterlimit:4;stroke-dasharray:none;stroke-dashoffset:0;stroke-opacity:1"
           id="path15"
           inkscape:flatsided="false"
           sodipodi:sides="3"
           sodipodi:cx="35.586456"
           sodipodi:cy="264.31876"
           sodipodi:r1="25.427889"
           sodipodi:r2="12.713946"
           sodipodi:arg1="0.52359878"
           sodipodi:arg2="1.5707963"
           inkscape:rounded="0"
           inkscape:randomized="0"
           d="m 57.607654,277.0327 -22.021197,0 -22.021198,0 11.010597,-19.07092 11.0106,-19.07091 11.010601,19.07091 z"
           transform="matrix(0.26763131,0.46355103,-0.46355103,0.26763131,132.59327,649.18673)"
           inkscape:export-filename="prizm_banner.png"
           inkscape:export-xdpi="109.20287"
           inkscape:export-ydpi="109.20287"
           inkscape:transform-center-y="3.1452886"
           inkscape:transform-center-x="6.8453662e-06" /></g><path
         sodipodi:type="star"
         style="font-variation-settings:normal;fill:#cc0000;fill-opacity:1;stroke:none;stroke-width:1.41111;stroke-linecap:butt;stroke-linejoin:bevel;stroke-miterlimit:4;stroke-dasharray:none;stroke-dashoffset:0;stroke-opacity:1"
         id="path16"
         inkscape:flatsided="false"
         sodipodi:sides="3"
         sodipodi:cx="35.586456"
         sodipodi:cy="264.31876"
         sodipodi:r1="25.427889"
         sodipodi:r2="12.713946"
         sodipodi:arg1="0.52359878"
         sodipodi:arg2="1.5707963"
         inkscape:rounded="0"
         inkscape:randomized="0"
         d="m 57.607654,277.0327 -22.021197,0 -22.021198,0 11.010597,-19.07092 11.0106,-19.07091 11.010601,19.07091 z"
         transform="matrix(-0.29823434,0.51655704,-0.51655704,-0.29823434,110.67428,451.28873)"
         inkscape:export-filename=".\icon.png"
         inkscape:export-xdpi="109.20287"
         inkscape:export-ydpi="109.20287"
         inkscape:transform-center-y="-3.117606"
         inkscape:transform-center-x="1.2657369e-06" /><path
         sodipodi:type="star"
         style="font-variation-settings:normal;fill:#3366cc;fill-opacity:1;stroke:none;stroke-width:1.41111;stroke-linecap:butt;stroke-linejoin:bevel;stroke-miterlimit:4;stroke-dasharray:none;stroke-dashoffset:0;stroke-opacity:1"
         id="path17"
         inkscape:flatsided="false"
         sodipodi:sides="3"
         sodipodi:cx="35.586456"
         sodipodi:cy="264.31876"
         sodipodi:r1="25.427889"
         sodipodi:r2="12.713946"
         sodipodi:arg1="0.52359878"
         sodipodi:arg2="1.5707963"
         inkscape:rounded="0"
         inkscape:randomized="0"
         d="m 57.607654,277.0327 -22.021197,0 -22.021198,0 11.010597,-19.07092 11.0106,-19.07091 11.010601,19.07091 z"
         transform="matrix(0.3525549,0.61064301,-0.61064301,0.3525549,158.72049,264.51493)"
         inkscape:export-filename=".\icon.png"
         inkscape:export-xdpi="109.20287"
         inkscape:export-ydpi="109.20287"
         inkscape:transform-center-y="4.1434713"
         inkscape:transform-center-x="-5.549485e-06" /><path
         sodipodi:type="star"
         style="font-variation-settings:normal;fill:#669900;fill-opacity:1;stroke:none;stroke-width:1.41111;stroke-linecap:butt;stroke-linejoin:bevel;stroke-miterlimit:4;stroke-dasharray:none;stroke-dashoffset:0;stroke-opacity:1"
         id="path18"
         inkscape:flatsided="false"
         sodipodi:sides="3"
         sodipodi:cx="35.586456"
         sodipodi:cy="264.31876"
         sodipodi:r1="25.427889"
         sodipodi:r2="12.713946"
         sodipodi:arg1="0.52359878"
         sodipodi:arg2="1.5707963"
         inkscape:rounded="0"
         inkscape:randomized="0"
         d="m 57.607654,277.0327 -22.021197,0 -22.021198,0 11.010597,-19.07092 11.0106,-19.07091 11.010601,19.07091 z"
         transform="matrix(-0.28170014,0.48791895,-0.48791895,-0.28170014,133.70235,450.55863)"
         inkscape:export-filename=".\icon.png"
         inkscape:export-xdpi="109.20287"
         inkscape:export-ydpi="109.20287"
         inkscape:transform-center-y="-2.9447667" /><path
         sodipodi:type="star"
         style="font-variation-settings:normal;fill:#ff9900;fill-opacity:1;stroke:none;stroke-width:1.41111;stroke-linecap:butt;stroke-linejoin:bevel;stroke-miterlimit:4;stroke-dasharray:none;stroke-dashoffset:0;stroke-opacity:1"
         id="path19"
         inkscape:flatsided="false"
         sodipodi:sides="3"
         sodipodi:cx="35.586456"
         sodipodi:cy="264.31876"
         sodipodi:r1="25.427889"
         sodipodi:r2="12.713946"
         sodipodi:arg1="0.52359878"
         sodipodi:arg2="1.5707963"
         inkscape:rounded="0"
         inkscape:randomized="0"
         d="m 57.607654,277.0327 -22.021197,0 -22.021198,0 11.010597,-19.07092 11.0106,-19.07091 11.010601,19.07091 z"
         transform="matrix(0.13411962,-0.50054123,0.50054123,0.13411962,-155.14954,356.69913)"
         inkscape:export-filename=".\icon.png"
         inkscape:export-xdpi="109.20287"
         inkscape:export-ydpi="109.20287"
         inkscape:transform-center-y="1.7052093"
         inkscape:transform-center-x="1.7051856" /><path
         sodipodi:type="star"
         style="font-variation-settings:normal;fill:#ff9900;fill-opacity:1;stroke:none;stroke-width:1.41111;stroke-linecap:butt;stroke-linejoin:bevel;stroke-miterlimit:4;stroke-dasharray:none;stroke-dashoffset:0;stroke-opacity:1"
         id="path20"
         inkscape:flatsided="false"
         sodipodi:sides="3"
         sodipodi:cx="35.586456"
         sodipodi:cy="264.31876"
         sodipodi:r1="25.427889"
         sodipodi:r2="12.713946"
         sodipodi:arg1="0.52359878"
         sodipodi:arg2="1.5707963"
         inkscape:rounded="0"
         inkscape:randomized="0"
         d="m 57.607654,277.0327 -22.021197,0 -22.021198,0 11.010597,-19.07092 11.0106,-19.07091 11.010601,19.07091 z"
         transform="matrix(-0.25909921,0.44877299,-0.44877299,-0.25909921,109.76519,441.22033)"
         inkscape:export-filename=".\icon.png"
         inkscape:export-xdpi="109.20287"
         inkscape:export-ydpi="109.20287"
         inkscape:transform-center-y="-3.2941843"
         inkscape:transform-center-x="1.5297653e-06" /><path
         sodipodi:type="star"
         style="font-variation-settings:normal;fill:#ff6600;fill-opacity:1;stroke:none;stroke-width:1.41111;stroke-linecap:butt;stroke-linejoin:bevel;stroke-miterlimit:4;stroke-dasharray:none;stroke-dashoffset:0;stroke-opacity:1"
         id="path21"
         inkscape:flatsided="false"
         sodipodi:sides="3"
         sodipodi:cx="35.586456"
         sodipodi:cy="264.31876"
         sodipodi:r1="25.427889"
         sodipodi:r2="12.713946"
         sodipodi:arg1="0.52359878"
         sodipodi:arg2="1.5707963"
         inkscape:rounded="0"
         inkscape:randomized="0"
         d="m 57.607654,277.0327 -22.021197,0 -22.021198,0 11.010597,-19.07092 11.0106,-19.07091 11.010601,19.07091 z"
         transform="matrix(-0.25978421,-0.25978421,0.25978421,-0.25978421,-84.54119,438.77873)"
         inkscape:export-filename=".\icon.png"
         inkscape:export-xdpi="109.20287"
         inkscape:export-ydpi="109.20287"
         inkscape:transform-center-x="-1.2089295"
         inkscape:transform-center-y="-1.2089768" /><path
         sodipodi:type="star"
         style="font-variation-settings:normal;fill:#669900;fill-opacity:1;stroke:none;stroke-width:1.41111;stroke-linecap:butt;stroke-linejoin:bevel;stroke-miterlimit:4;stroke-dasharray:none;stroke-dashoffset:0;stroke-opacity:1"
         id="path24"
         inkscape:flatsided="false"
         sodipodi:sides="3"
         sodipodi:cx="35.586456"
         sodipodi:cy="264.31876"
         sodipodi:r1="25.427889"
         sodipodi:r2="12.713946"
         sodipodi:arg1="0.52359878"
         sodipodi:arg2="1.5707963"
         inkscape:rounded="0"
         inkscape:randomized="0"
         d="m 57.607654,277.0327 -22.021197,0 -22.021198,0 11.010597,-19.07092 11.0106,-19.07091 11.010601,19.07091 z"
         transform="matrix(0.28170014,0.48791895,-0.48791895,0.28170014,119.04278,293.76383)"
         inkscape:export-filename=".\icon.png"
         inkscape:export-xdpi="109.20287"
         inkscape:export-ydpi="109.20287"
         inkscape:transform-center-y="2.94474" /><path
         sodipodi:type="star"
         style="font-variation-settings:normal;fill:#cc0000;fill-opacity:1;stroke:none;stroke-width:1.41111;stroke-linecap:butt;stroke-linejoin:bevel;stroke-miterlimit:4;stroke-dasharray:none;stroke-dashoffset:0;stroke-opacity:1"
         id="path25"
         inkscape:flatsided="false"
         sodipodi:sides="3"
         sodipodi:cx="35.586456"
         sodipodi:cy="264.31876"
         sodipodi:r1="25.427889"
         sodipodi:r2="12.713946"
         sodipodi:arg1="0.52359878"
         sodipodi:arg2="1.5707963"
         inkscape:rounded="0"
         inkscape:randomized="0"
         d="m 57.607654,277.0327 -22.021197,0 -22.021198,0 11.010597,-19.07092 11.0106,-19.07091 11.010601,19.07091 z"
         transform="matrix(0.51655704,-0.29823434,0.29823434,0.51655704,-131.37239,255.04963)"
         inkscape:export-filename=".\icon.png"
         inkscape:export-xdpi="109.20287"
         inkscape:export-ydpi="109.20287"
         inkscape:transform-center-y="6.658221e-06"
         inkscape:transform-center-x="-3.117587" /><path
         d="m -64.567635,371.50777 -6.389791,11.06754 -6.389791,11.06754 h 6.389791 6.389791 l 3.195154,-5.53351 3.194637,-5.53403 -3.194637,-5.53351 z"
         style="fill:#ffffff;stroke-width:1.41111;stroke-linejoin:bevel"
         id="path27" /></g><rect
       style="fill:none;fill-opacity:1;stroke:#000000;stroke-width:0.1;stroke-linecap:square;stroke-linejoin:bevel;stroke-dasharray:none;stroke-opacity:1"
       id="rect4"
       width="59.444225"
       height="59.444225"
       x="-204.97124"
       y="684.43414"
       inkscape:export-filename="minimize.png"
       inkscape:export-xdpi="109.20287"
       inkscape:export-ydpi="109.20287" /><path
       d="m -173.35789,704.28931 c -0.29111,0.006 -0.58141,0.0269 -0.87023,0.062 -0.28883,0.0351 -0.57645,0.0845 -0.863,0.14831 -0.28655,0.0638 -0.57201,0.14206 -0.85628,0.23461 -0.28427,0.0926 -0.56706,0.19963 -0.84904,0.32092 -0.28199,0.12128 -0.56314,0.25667 -0.84285,0.40669 -0.27918,0.14806 -0.54543,0.30431 -0.79891,0.46819 -0.25348,0.16388 -0.49414,0.33551 -0.72192,0.51521 -0.22778,0.1797 -0.44233,0.36723 -0.64441,0.56276 -0.20208,0.19552 -0.39154,0.39895 -0.56792,0.6103 -0.17639,0.21134 -0.33973,0.43067 -0.49041,0.65784 -0.15069,0.22716 -0.28895,0.46239 -0.41393,0.70538 -0.12499,0.24299 -0.23713,0.4936 -0.33641,0.75241 -0.0993,0.25881 -0.18532,0.52584 -0.2589,0.80047 -0.0704,0.26286 -0.13257,0.51926 -0.18552,0.76946 -0.053,0.2502 -0.0968,0.4942 -0.13229,0.73174 -0.0355,0.23754 -0.0621,0.46862 -0.0801,0.6935 -0.018,0.22487 -0.0274,0.44355 -0.0279,0.65577 -5e-4,0.21221 0.008,0.41798 0.0248,0.61753 0.017,0.19956 0.0425,0.39292 0.077,0.57981 0.0344,0.18689 0.0778,0.36734 0.1297,0.54157 0.0519,0.17423 0.11249,0.34228 0.1819,0.50385 0.07,0.1596 0.14868,0.3127 0.23617,0.4594 0.0875,0.1467 0.18383,0.28685 0.28887,0.42065 0.10503,0.13379 0.219,0.261 0.34158,0.38189 0.12258,0.12088 0.25364,0.23566 0.39377,0.34364 0.14013,0.10798 0.28933,0.2093 0.447,0.30438 0.15768,0.0951 0.32397,0.18345 0.4992,0.26561 0.17522,0.0822 0.35913,0.15812 0.5519,0.22738 0.19277,0.0693 0.3943,0.13227 0.60462,0.18862 0.27166,0.0728 0.54207,0.1344 0.81132,0.18552 0.26925,0.0511 0.53724,0.0915 0.80408,0.12092 0.26684,0.0294 0.53243,0.048 0.79685,0.0558 0.26443,0.008 0.5276,0.005 0.78962,-0.009 0.26745,-0.0166 0.53363,-0.0433 0.7984,-0.0806 0.26477,-0.0373 0.52855,-0.0851 0.79065,-0.14314 0.2621,-0.058 0.52244,-0.12644 0.78186,-0.20515 0.25943,-0.0787 0.51788,-0.16777 0.77463,-0.26717 0.11875,-0.96897 0.23805,-1.87469 0.35812,-2.71715 0.12007,-0.84246 0.24086,-1.62137 0.36225,-2.33732 0.1214,-0.71596 0.24315,-1.36909 0.36587,-1.95854 0.12272,-0.58945 0.24647,-1.11525 0.37052,-1.5782 0.0673,-0.25109 0.1481,-0.51773 0.24236,-0.79943 0.0943,-0.28171 0.20173,-0.57859 0.32298,-0.8909 0.26424,-0.63564 0.58279,-1.33275 0.95498,-2.09083 -0.15424,-0.12543 -0.30294,-0.23664 -0.44597,-0.33383 -0.14302,-0.0972 -0.28057,-0.18013 -0.41237,-0.24908 -0.12094,-0.0745 -0.2355,-0.13693 -0.34417,-0.18707 -0.10866,-0.0501 -0.21159,-0.0879 -0.30799,-0.11369 -0.29795,-0.0798 -0.59471,-0.14578 -0.89038,-0.19689 -0.29567,-0.0511 -0.59028,-0.0877 -0.88367,-0.11007 -0.29339,-0.0224 -0.58533,-0.0301 -0.87643,-0.0238 z"
       style="fill:#ffffff;stroke-width:0.677739;stroke-linecap:square"
       id="path43" /><path
       d="m -176.21715,686.46042 c -1.35943,-0.0139 -2.71181,0.0609 -4.04678,0.22376 -1.33484,0.16307 -2.64888,0.41382 -3.93206,0.75035 -1.28339,0.33644 -2.53266,0.75781 -3.73828,1.2609 -1.20552,0.50328 -2.36431,1.08699 -3.46748,1.74666 -1.1032,0.6595 -2.148,1.39328 -3.12643,2.19574 -0.97844,0.80236 -1.88802,1.67136 -2.7218,2.60035 -0.83366,0.92916 -1.58937,1.91594 -2.26136,2.95279 -0.67206,1.03674 -1.25871,2.12092 -1.75544,3.24425 -0.49669,1.12352 -0.90217,2.28334 -1.21337,3.47059 -0.31127,1.18704 -0.52748,2.3985 -0.64699,3.6251 -0.11947,1.22671 -0.14192,2.46545 -0.0672,3.70675 0.0746,1.2414 0.2463,2.48222 0.51367,3.71295 0.26748,1.23054 0.62997,2.44787 1.08469,3.64268 0.45478,1.19505 1.00066,2.36454 1.63349,3.49952 0.63276,1.13486 1.35082,2.23234 2.1487,3.28404 0.79779,1.05162 1.67335,2.05481 2.62,3.00189 0.11168,0.0993 0.22417,0.19782 0.33745,0.29558 l -7.94784,11.29027 20.82509,-3.78116 c 0.26388,0.0946 0.52901,0.18569 0.7953,0.27337 0.45543,0.12461 0.91343,0.23919 1.37356,0.34364 0.46012,0.10459 0.92225,0.19902 1.38596,0.28319 0.46378,0.0842 0.92901,0.15812 1.39526,0.22169 0.46624,0.0634 0.93337,0.11651 1.40095,0.15917 0.46749,0.0428 0.9353,0.0752 1.40302,0.0972 0.46788,0.0218 0.93552,0.0332 1.40249,0.0341 0.4669,8.3e-4 0.93299,-0.009 1.39785,-0.0289 0.46487,-0.0199 0.92837,-0.0502 1.3901,-0.091 0.46163,-0.0409 0.92135,-0.0923 1.37872,-0.15399 0.45737,-0.0617 0.91226,-0.1337 1.36426,-0.21601 0.45223,-0.0823 0.90143,-0.17479 1.34721,-0.2775 0.44552,-0.10272 0.88749,-0.21558 1.3255,-0.33848 0.43813,-0.12301 0.87218,-0.25603 1.30173,-0.39894 0.42952,-0.14282 0.85443,-0.29549 1.27434,-0.45786 0.41987,-0.16247 0.83461,-0.33461 1.24385,-0.51624 0.40933,-0.18147 0.81305,-0.37239 1.21078,-0.57258 0.39759,-0.20031 0.78907,-0.40984 1.17409,-0.62838 0.38513,-0.21849 0.76369,-0.44593 1.13533,-0.68213 0.37163,-0.23617 0.73623,-0.48102 1.09347,-0.73433 0.35725,-0.25334 0.70704,-0.51508 1.04903,-0.78496 0.34199,-0.26986 0.6761,-0.54779 1.00201,-0.83354 0.32585,-0.28588 0.64341,-0.57949 0.9524,-0.88057 0.30899,-0.30088 0.60932,-0.60914 0.90072,-0.92449 0.29144,-0.31555 0.57385,-0.63811 0.84697,-0.96738 0.27316,-0.32904 0.53697,-0.6647 0.79117,-1.00666 0.254,-0.34203 0.49834,-0.69026 0.73277,-1.04438 0.23466,-0.35416 0.45935,-0.71411 0.67386,-1.07952 0.21443,-0.36546 0.41861,-0.73626 0.61237,-1.11208 0.19364,-0.37573 0.3768,-0.75635 0.54932,-1.14153 0.17267,-0.38532 0.33464,-0.77507 0.48576,-1.16892 0.15114,-0.39371 0.2914,-0.7914 0.42064,-1.19269 0.12908,-0.40126 0.24711,-0.80601 0.35399,-1.21388 0.31129,-1.18721 0.52751,-2.39884 0.64698,-3.62562 0.11948,-1.22671 0.14193,-2.46545 0.0672,-3.70675 -0.0748,-1.24124 -0.24666,-2.48188 -0.51418,-3.71244 -0.26729,-1.23069 -0.6296,-2.44819 -1.08417,-3.64318 -0.4548,-1.19488 -1.00069,-2.3642 -1.63349,-3.49902 -0.63276,-1.13486 -1.35082,-2.23233 -2.14871,-3.28403 -0.79778,-1.05163 -1.67335,-2.05481 -2.61999,-3.00189 -0.94675,-0.94721 -1.9622,-1.8359 -3.03858,-2.65927 -1.07641,-0.8233 -2.21102,-1.57919 -3.39514,-2.26187 -1.18395,-0.68263 -2.41441,-1.29035 -3.68194,-1.8185 -1.26756,-0.52819 -2.56899,-0.97547 -3.89434,-1.33842 -1.32543,-0.36295 -2.67142,-0.64065 -4.02766,-0.83095 -1.35627,-0.19029 -2.71935,-0.29269 -4.07882,-0.30645 z m 1.89187,11.77035 c 0.51972,0.004 1.04338,0.0307 1.57097,0.0816 0.52758,0.051 1.05928,0.12601 1.59473,0.22428 0.53545,0.0983 1.07467,0.21977 1.61799,0.36535 0.41625,0.11154 0.842,0.25406 1.27693,0.42737 0.43492,0.1733 0.87914,0.3778 1.33273,0.61288 0.4536,0.23507 0.91628,0.50104 1.38855,0.79788 0.47226,0.29685 0.95393,0.62427 1.44487,0.98289 0.29665,0.21615 0.57187,0.42954 0.82579,0.63975 0.25391,0.21022 0.48645,0.41738 0.69763,0.62167 0.21118,0.20429 0.40102,0.40574 0.56947,0.6041 0.16846,0.19835 0.3156,0.39358 0.44132,0.58601 0.12572,0.19242 0.23017,0.38195 0.31316,0.56844 0.083,0.18649 0.14474,0.36979 0.185,0.55035 0.0403,0.18057 0.0593,0.35816 0.0568,0.53279 -0.002,0.17463 -0.0266,0.34651 -0.0718,0.51521 -0.0378,0.14124 -0.0871,0.27483 -0.1478,0.40049 -0.0607,0.12566 -0.1325,0.24339 -0.21601,0.35347 -0.0835,0.11008 -0.1784,0.21246 -0.28473,0.30696 -0.10633,0.0945 -0.22431,0.18101 -0.35347,0.25993 -0.17173,0.29038 -0.34565,0.62454 -0.52193,1.00201 -0.17628,0.37746 -0.35506,0.79842 -0.53589,1.26297 -0.16996,0.45905 -0.33991,0.96215 -0.51004,1.50947 -0.17014,0.54731 -0.34026,1.13899 -0.51057,1.77457 -0.20078,0.74935 -0.37264,1.44987 -0.51573,2.10219 -0.14309,0.65233 -0.25722,1.25648 -0.34261,1.81178 -0.0854,0.5553 -0.14232,1.06204 -0.17002,1.52032 -0.0138,0.22914 -0.0202,0.44572 -0.0196,0.65061 5.7e-4,0.20488 0.008,0.39763 0.0233,0.57826 0.0147,0.15532 0.19929,1.07965 0.55345,2.77244 0.16096,0.76638 0.27528,1.36445 0.34314,1.79472 0.0339,0.21513 0.056,0.38876 0.0667,0.51986 0.0107,0.13111 0.01,0.22009 -0.003,0.26717 -0.0557,0.20794 -0.13148,0.40105 -0.22738,0.57929 -0.0959,0.17825 -0.21222,0.34134 -0.3483,0.4899 -0.13608,0.14855 -0.29193,0.28265 -0.46819,0.40152 -0.17626,0.11887 -0.37267,0.22243 -0.58911,0.31161 -0.21206,0.0903 -0.42679,0.16173 -0.64389,0.21394 -0.2171,0.0522 -0.43673,0.0857 -0.65887,0.0997 -0.22214,0.0141 -0.44668,0.009 -0.67386,-0.015 -0.22719,-0.0241 -0.45714,-0.0675 -0.68937,-0.12971 -0.10077,-0.027 -0.20571,-0.068 -0.31471,-0.1235 -0.10899,-0.0555 -0.22178,-0.12532 -0.33899,-0.20929 -0.11722,-0.084 -0.23838,-0.18211 -0.36381,-0.29456 -0.12543,-0.11245 -0.25495,-0.2394 -0.3886,-0.38034 -0.2673,-0.28187 -0.55146,-0.62067 -0.85163,-1.01647 -0.30017,-0.3958 -0.61678,-0.84833 -0.94981,-1.35806 -0.89873,0.12922 -1.73744,0.22788 -2.51665,0.29662 -0.3896,0.0344 -0.76424,0.0614 -1.12396,0.0806 -0.35972,0.0192 -0.70472,0.031 -1.03456,0.0351 -0.33089,0.008 -0.64694,0.008 -0.94878,-5.2e-4 -0.30184,-0.008 -0.58917,-0.0249 -0.86196,-0.0496 -0.2728,-0.0247 -0.5314,-0.0576 -0.77515,-0.0987 -0.24375,-0.0411 -0.47311,-0.0908 -0.68781,-0.14831 -0.52799,-0.14147 -1.03523,-0.29407 -1.52187,-0.45837 -0.48665,-0.1643 -0.95254,-0.33997 -1.39785,-0.5271 -0.44531,-0.18713 -0.86985,-0.38588 -1.27382,-0.59583 -0.40398,-0.20995 -0.78717,-0.43126 -1.14981,-0.66404 -0.36263,-0.23278 -0.70448,-0.47717 -1.02577,-0.73277 -0.3213,-0.25561 -0.62231,-0.52256 -0.90227,-0.80099 -0.27996,-0.27843 -0.53911,-0.56794 -0.77773,-0.8692 -0.23862,-0.30125 -0.45643,-0.61436 -0.65371,-0.93844 -0.19509,-0.3235 -0.36966,-0.658 -0.52348,-1.00407 -0.15382,-0.34608 -0.28691,-0.70363 -0.39946,-1.07229 -0.11255,-0.36866 -0.20468,-0.74874 -0.27595,-1.13998 -0.0713,-0.39124 -0.12193,-0.79334 -0.15193,-1.20716 -0.03,-0.41382 -0.0392,-0.83898 -0.0279,-1.27538 0.0113,-0.4364 0.0431,-0.88409 0.0956,-1.34307 0.0525,-0.45898 0.12582,-0.9292 0.21963,-1.41076 0.0938,-0.48157 0.20805,-0.97484 0.34313,-1.47898 0.12668,-0.47276 0.27566,-0.93 0.44648,-1.37253 0.0854,-0.22126 0.17641,-0.43896 0.27286,-0.65267 0.0964,-0.21371 0.19844,-0.42379 0.30592,-0.62994 0.10748,-0.20615 0.22048,-0.4086 0.339,-0.6072 0.11852,-0.19859 0.24251,-0.39342 0.37207,-0.58446 0.12956,-0.19104 0.26455,-0.37824 0.40514,-0.56172 0.1406,-0.18348 0.28659,-0.36306 0.43822,-0.53899 0.15163,-0.17592 0.30862,-0.34787 0.47129,-0.51624 0.16266,-0.16837 0.33117,-0.33322 0.50488,-0.49403 0.3474,-0.32163 0.7169,-0.62792 1.10846,-0.91932 0.39155,-0.29141 0.80505,-0.56772 1.24075,-0.82889 0.4357,-0.26118 0.89371,-0.50751 1.37356,-0.73846 0.48037,-0.23291 0.96438,-0.44227 1.45262,-0.62787 0.48824,-0.1856 0.98029,-0.34747 1.4764,-0.48576 0.4961,-0.13829 0.99619,-0.25267 1.50016,-0.34364 0.50398,-0.091 1.01209,-0.15839 1.52394,-0.20206 0.51185,-0.0437 1.02748,-0.0636 1.54719,-0.0599 z"
       style="fill:#ffffff;stroke-width:0.264583px"
       id="path42" /><rect
       style="fill:none;fill-opacity:1;stroke:#000000;stroke-width:0.1;stroke-linecap:square;stroke-linejoin:bevel;stroke-dasharray:none;stroke-opacity:1"
       id="rect5"
       width="59.444225"
       height="59.444225"
       x="-126.20691"
       y="684.43414"
       inkscape:export-filename="minimize.png"
       inkscape:export-xdpi="109.20287"
       inkscape:export-ydpi="109.20287" /><path
       d="m -97.452966,686.46042 c -1.359432,-0.0139 -2.711804,0.0609 -4.046784,0.22376 -1.33484,0.16307 -2.64887,0.41382 -3.93206,0.75035 -1.28338,0.33644 -2.53266,0.75781 -3.73827,1.2609 -1.20553,0.50328 -2.36431,1.08699 -3.46749,1.74666 -1.10319,0.6595 -2.148,1.39328 -3.12642,2.19574 -0.97827,0.80238 -1.88768,1.67138 -2.72128,2.60035 -0.83384,0.92914 -1.58973,1.91592 -2.26188,2.95279 -0.67207,1.03674 -1.25871,2.12092 -1.75545,3.24425 -0.49668,1.12352 -0.90217,2.28334 -1.21336,3.47059 -0.31127,1.18704 -0.52749,2.3985 -0.64699,3.6251 -0.11948,1.22671 -0.14193,2.46545 -0.0672,3.70675 0.0748,1.24141 0.24664,2.48223 0.51418,3.71295 0.26749,1.23054 0.62997,2.44787 1.08469,3.64268 0.45461,1.19504 1.00032,2.36453 1.63297,3.49952 0.63276,1.13486 1.35083,2.23234 2.14871,3.28404 0.79779,1.05162 1.67335,2.05481 2.61999,3.00189 0.11169,0.0993 0.22417,0.19782 0.33745,0.29558 l -7.94783,11.29027 20.8256,-3.78116 c 0.26388,0.0946 0.52901,0.18569 0.7953,0.27337 0.45543,0.12461 0.91343,0.23919 1.37356,0.34364 0.46012,0.10459 0.92225,0.19902 1.38596,0.28319 0.463606,0.0842 0.928664,0.15811 1.394747,0.22169 0.466238,0.0634 0.933363,0.11651 1.400948,0.15917 0.467658,0.0428 0.935645,0.0752 1.403532,0.0972 0.467708,0.0218 0.935177,0.0332 1.401982,0.0341 0.466894,8.3e-4 0.932986,-0.009 1.397847,-0.0289 0.464865,-0.0199 0.928371,-0.0502 1.390096,-0.091 0.461636,-0.0409 0.921352,-0.0923 1.378727,-0.15399 0.457537,-0.0617 0.912601,-0.13369 1.364775,-0.21601 0.452051,-0.0823 0.901084,-0.1748 1.346688,-0.2775 0.445526,-0.10272 0.887494,-0.21558 1.3255,-0.33848 0.438136,-0.12301 0.872178,-0.25603 1.301729,-0.39894 0.429523,-0.14282 0.854433,-0.29549 1.274341,-0.45786 0.420044,-0.16247 0.83496,-0.3346 1.244369,-0.51624 0.409161,-0.18148 0.812705,-0.3724 1.210262,-0.57258 0.397763,-0.20031 0.789418,-0.40983 1.174605,-0.62838 0.385135,-0.21849 0.763694,-0.44593 1.135331,-0.68213 0.371456,-0.23617 0.735886,-0.48102 1.092957,-0.73433 0.357251,-0.25334 0.707035,-0.51508 1.049031,-0.78496 0.341989,-0.26986 0.676093,-0.54779 1.002007,-0.83354 0.325852,-0.28588 0.643414,-0.57949 0.952396,-0.88057 0.308994,-0.30088 0.609325,-0.60914 0.90072,-0.92449 0.291443,-0.31555 0.573855,-0.63811 0.846977,-0.96738 0.273161,-0.32904 0.536964,-0.6647 0.791166,-1.00666 0.254181,-0.34203 0.498685,-0.69026 0.733289,-1.04438 0.234485,-0.35417 0.459001,-0.71412 0.673344,-1.07952 0.214424,-0.36546 0.418608,-0.73626 0.612365,-1.11208 0.193814,-0.37572 0.377149,-0.75635 0.549838,-1.14153 0.172498,-0.38532 0.334294,-0.77508 0.485241,-1.16892 0.151147,-0.39371 0.291406,-0.7914 0.420647,-1.19269 0.129255,-0.40126 0.247458,-0.80601 0.3545,-1.21388 0.31112,-1.18722 0.527161,-2.39885 0.646472,-3.62562 0.119477,-1.22671 0.141927,-2.46545 0.06718,-3.70675 -0.07466,-1.24123 -0.24632,-2.48187 -0.513663,-3.71244 -0.26746,-1.2307 -0.629947,-2.4482 -1.084689,-3.64318 -0.454804,-1.19488 -1.000692,-2.3642 -1.633492,-3.49902 -0.632758,-1.13486 -1.350823,-2.23233 -2.148706,-3.28403 -0.797787,-1.05163 -1.67335,-2.05481 -2.619995,-3.00189 -0.946751,-0.94721 -1.962197,-1.8359 -3.038574,-2.65927 -1.07625,-0.82328 -2.210683,-1.57917 -3.394625,-2.26187 -1.184125,-0.68265 -2.41475,-1.29037 -3.682462,-1.8185 -1.267561,-0.52819 -2.568989,-0.97547 -3.894336,-1.33842 -1.325434,-0.36295 -2.671418,-0.64065 -4.027662,-0.83095 -1.356272,-0.19029 -2.719353,-0.29269 -4.07882,-0.30645 z m -4.499984,10.53321 c 0.23533,0.02 0.4737,0.0625 0.71469,0.12713 0.15554,0.0417 0.31396,0.10274 0.4749,0.18345 0.16094,0.0807 0.3246,0.18102 0.49093,0.30075 0.16633,0.11974 0.335218,0.25879 0.506943,0.41755 0.171725,0.15876 0.345848,0.33706 0.522966,0.53485 0.177117,0.19779 0.356992,0.41534 0.539502,0.65216 0.18251,0.23681 0.367619,0.4931 0.555521,0.76894 0.187903,0.27584 0.378764,0.57087 0.572059,0.88574 0.193294,0.31486 0.38939,0.64966 0.588077,1.00355 l 2.9068,5.97587 c 1.810035,-0.72604 3.611296,-1.45415 5.403804,-2.18488 0.561166,-0.2365 1.086235,-0.46846 1.574581,-0.69609 0.488346,-0.22762 0.939947,-0.45097 1.355473,-0.66972 0.415526,-0.21875 0.794693,-0.43298 1.137398,-0.64286 0.342706,-0.20988 0.648922,-0.41549 0.918807,-0.6165 0.126268,-0.0944 0.253847,-0.18061 0.382406,-0.25838 0.128558,-0.0778 0.258274,-0.14713 0.389123,-0.20825 0.130849,-0.0611 0.262702,-0.11365 0.395842,-0.15813 0.13314,-0.0445 0.267645,-0.0807 0.403076,-0.10853 0.135431,-0.0278 0.272073,-0.0477 0.409794,-0.0589 0.137721,-0.0112 0.2765,-0.0137 0.416512,-0.008 0.140012,0.005 0.280927,0.0192 0.42323,0.0413 0.142303,0.0221 0.285871,0.0522 0.430465,0.091 0.236607,0.0634 0.461935,0.14366 0.675411,0.24081 0.213476,0.0971 0.415303,0.2112 0.605647,0.3421 0.190345,0.13089 0.369189,0.27873 0.536402,0.44338 0.167212,0.16465 0.322557,0.34628 0.466638,0.54467 0.148462,0.19957 0.271806,0.3998 0.369487,0.60048 0.09768,0.20068 0.169625,0.40179 0.216524,0.60358 0.0469,0.20179 0.06848,0.4043 0.06459,0.6072 -0.0039,0.2029 -0.03319,0.40629 -0.08785,0.6103 -0.03417,0.12751 -0.08382,0.25577 -0.148828,0.38447 -0.06501,0.1287 -0.144955,0.25768 -0.240812,0.38757 -0.09586,0.1299 -0.207644,0.26062 -0.334346,0.39171 -0.126703,0.1311 -0.268782,0.26252 -0.426331,0.39481 -0.157549,0.13229 -0.330437,0.26545 -0.518831,0.39894 -0.188395,0.13349 -0.392092,0.26736 -0.611333,0.40204 -0.21924,0.13469 -0.453746,0.2703 -0.703833,0.40618 -0.250086,0.13588 -0.515918,0.2722 -0.79685,0.40928 -1.205053,0.50128 -2.764487,1.16812 -4.678268,2.00091 l -4.918046,2.26498 5.665804,10.92905 c 0.101493,0.1996 0.185024,0.39346 0.250631,0.58239 0.06561,0.18893 0.113422,0.37261 0.143144,0.55087 0.02972,0.17827 0.0413,0.35123 0.03514,0.51883 -0.0062,0.1676 -0.0303,0.32986 -0.07235,0.48679 -0.05466,0.20402 -0.130638,0.39571 -0.227893,0.57465 -0.09725,0.17893 -0.215689,0.34534 -0.355534,0.49919 -0.139846,0.15385 -0.300739,0.29497 -0.483175,0.42375 -0.182436,0.12877 -0.386305,0.24511 -0.611332,0.34881 -0.225026,0.1037 -0.451623,0.18664 -0.679545,0.24857 -0.227922,0.0619 -0.456996,0.10284 -0.687813,0.12299 -0.230817,0.0202 -0.463403,0.0195 -0.697115,-0.002 -0.233713,-0.0216 -0.468776,-0.0642 -0.705384,-0.12764 -0.24537,-0.0657 -0.478021,-0.15321 -0.697632,-0.26252 -0.219611,-0.1093 -0.426266,-0.24039 -0.620117,-0.39326 -0.193851,-0.15286 -0.374511,-0.32758 -0.542602,-0.52399 -0.168092,-0.19642 -0.323273,-0.41477 -0.465605,-0.65474 -0.291324,-0.49015 -0.626365,-1.07439 -1.00459,-1.75287 -0.378225,-0.67848 -0.799913,-1.45088 -1.265039,-2.31769 -0.930253,-1.73361 -2.034085,-3.84394 -3.311942,-6.33088 -0.880124,0.44538 -1.994552,0.98368 -3.342429,1.61489 -1.34788,0.63121 -2.9293,1.35492 -4.74493,2.17196 -0.56783,0.2263 -1.07082,0.43868 -1.50895,0.63666 -0.43814,0.19797 -0.81139,0.38173 -1.11983,0.55138 -0.24115,0.12882 -0.48236,0.23373 -0.72347,0.3142 -0.24111,0.0805 -0.4824,0.13634 -0.72347,0.16846 -0.24107,0.0321 -0.48193,0.0405 -0.72296,0.0243 -0.24103,-0.0162 -0.48196,-0.0569 -0.72295,-0.12144 -0.23661,-0.0634 -0.46168,-0.14423 -0.67489,-0.24236 -0.21322,-0.0981 -0.4148,-0.21338 -0.60462,-0.34624 -0.18982,-0.13285 -0.36791,-0.28303 -0.53433,-0.45061 -0.16643,-0.16759 -0.32103,-0.35269 -0.46406,-0.55501 -0.13864,-0.20114 -0.25333,-0.40275 -0.34365,-0.60461 -0.0903,-0.20186 -0.15644,-0.40411 -0.19843,-0.60668 -0.042,-0.20258 -0.0596,-0.40546 -0.0532,-0.60875 0.006,-0.2033 0.0368,-0.40681 0.0915,-0.61082 0.0305,-0.11377 0.0726,-0.22655 0.12661,-0.33848 0.0541,-0.11193 0.11977,-0.22323 0.1974,-0.33331 0.0776,-0.11008 0.167,-0.2194 0.2682,-0.32763 0.1012,-0.10823 0.21422,-0.21556 0.339,-0.32194 0.12477,-0.10639 0.26144,-0.21173 0.40979,-0.31626 0.14835,-0.10454 0.30867,-0.2079 0.48059,-0.31058 0.34385,-0.20537 0.73492,-0.40716 1.17306,-0.60513 1.39643,-0.58456 2.79046,-1.16126 4.18269,-1.73013 1.32562,-0.67081 3.38407,-1.69185 6.17481,-3.06338 -0.65349,-1.48705 -1.31593,-2.97671 -1.98695,-4.46846 -0.20562,-0.44195 -0.41198,-0.86255 -0.6196,-1.26194 -0.20763,-0.39939 -0.41668,-0.77747 -0.62632,-1.13429 -0.20964,-0.35683 -0.41984,-0.69239 -0.63149,-1.00666 -0.21165,-0.31427 -0.42454,-0.60731 -0.6382,-0.87902 -0.18264,-0.22975 -0.33558,-0.45736 -0.45837,-0.68264 -0.0614,-0.11264 -0.11532,-0.22438 -0.16175,-0.3359 -0.0464,-0.11152 -0.0853,-0.22291 -0.11679,-0.33331 -0.0315,-0.1104 -0.0553,-0.2199 -0.0718,-0.32918 -0.0165,-0.10929 -0.0253,-0.21791 -0.0269,-0.32608 -0.002,-0.10816 0.004,-0.21593 0.0176,-0.32298 0.0134,-0.10704 0.0341,-0.21343 0.0625,-0.31936 0.0547,-0.20401 0.12952,-0.39643 0.22376,-0.57722 0.0942,-0.1808 0.2083,-0.35041 0.34209,-0.50798 0.1338,-0.15758 0.28708,-0.30334 0.46044,-0.4377 0.17337,-0.13436 0.36636,-0.25731 0.57929,-0.36845 0.21837,-0.1139 0.44002,-0.20513 0.66405,-0.27441 0.22402,-0.0693 0.4509,-0.11641 0.68057,-0.14107 0.22968,-0.0247 0.46179,-0.0272 0.69712,-0.007 z"
       style="fill:#ffffff;stroke-width:0.264583px"
       id="path44" /><rect
       style="fill:none;fill-opacity:1;stroke:#000000;stroke-width:0.1;stroke-linecap:square;stroke-linejoin:bevel;stroke-dasharray:none;stroke-opacity:1"
       id="rect10"
       width="59.444225"
       height="59.444225"
       x="-204.97124"
       y="684.43414"
       inkscape:export-filename="minimize.png"
       inkscape:export-xdpi="109.20287"
       inkscape:export-ydpi="109.20287" /><rect
       style="fill:none;fill-opacity:1;stroke:#000000;stroke-width:0.1;stroke-linecap:square;stroke-linejoin:bevel;stroke-dasharray:none;stroke-opacity:1"
       id="rect11"
       width="59.444225"
       height="59.444225"
       x="-204.97124"
       y="684.43414"
       inkscape:export-filename="minimize.png"
       inkscape:export-xdpi="109.20287"
       inkscape:export-ydpi="109.20287" /><path
       d="m -256.29133,686.46042 c -1.35926,-0.0139 -2.71146,0.0609 -4.04627,0.22376 -1.33501,0.16305 -2.64922,0.4138 -3.93257,0.75035 -1.28321,0.33646 -2.53231,0.75783 -3.73776,1.2609 -1.20553,0.50328 -2.36431,1.08699 -3.46749,1.74666 -1.10319,0.6595 -2.148,1.39328 -3.12642,2.19574 -0.97845,0.80236 -1.88803,1.67136 -2.7218,2.60035 -0.83384,0.92914 -1.58973,1.91592 -2.26188,2.95279 -0.67206,1.03674 -1.25871,2.12092 -1.75545,3.24425 -0.49668,1.12352 -0.90217,2.28334 -1.21336,3.47059 -0.31127,1.18704 -0.52748,2.3985 -0.64699,3.6251 -0.11948,1.22671 -0.14193,2.46545 -0.0672,3.70675 0.0748,1.24141 0.24664,2.48223 0.51418,3.71295 0.26749,1.23054 0.62998,2.44787 1.08469,3.64268 0.45461,1.19504 1.00033,2.36453 1.63298,3.49952 0.63275,1.13486 1.35082,2.23234 2.1487,3.28404 0.79796,1.05164 1.67369,2.05482 2.62051,3.00189 0.11169,0.0993 0.22417,0.19782 0.33745,0.29558 l -7.94783,11.29027 20.82508,-3.78116 c 0.26388,0.0946 0.52901,0.18569 0.7953,0.27337 0.45544,0.12461 0.91343,0.23919 1.37356,0.34364 0.46012,0.10459 0.92225,0.19902 1.38596,0.28319 0.46378,0.0842 0.92901,0.15812 1.39527,0.22169 0.46606,0.0634 0.93302,0.1165 1.40043,0.15917 0.46766,0.0428 0.93564,0.0752 1.40353,0.0972 0.46771,0.0218 0.93518,0.0332 1.40198,0.0341 0.4669,8.3e-4 0.93299,-0.009 1.39785,-0.0289 0.46486,-0.0199 0.92837,-0.0502 1.3901,-0.091 0.46163,-0.0409 0.92135,-0.0923 1.37872,-0.15399 0.45754,-0.0617 0.9126,-0.13369 1.36478,-0.21601 0.45205,-0.0823 0.90108,-0.1748 1.34668,-0.2775 0.44571,-0.10271 0.88785,-0.21557 1.32602,-0.33848 0.43796,-0.12302 0.87183,-0.25604 1.30121,-0.39894 0.42953,-0.14282 0.85444,-0.29549 1.27435,-0.45786 0.42004,-0.16247 0.83496,-0.3346 1.24436,-0.51624 0.40917,-0.18148 0.81271,-0.3724 1.21027,-0.57258 0.39776,-0.20031 0.78941,-0.40983 1.1746,-0.62838 0.38514,-0.21849 0.7637,-0.44593 1.13533,-0.68213 0.37163,-0.23617 0.73624,-0.48102 1.09348,-0.73433 0.35707,-0.25335 0.70668,-0.51508 1.04851,-0.78496 0.34199,-0.26986 0.67609,-0.54779 1.00201,-0.83354 0.32585,-0.28588 0.64341,-0.57949 0.95239,-0.88057 0.30917,-0.30088 0.60968,-0.60913 0.90124,-0.92449 0.29127,-0.31556 0.57351,-0.63812 0.84646,-0.96738 0.27316,-0.32904 0.53696,-0.6647 0.79117,-1.00666 0.25418,-0.34203 0.49868,-0.69026 0.73329,-1.04438 0.23448,-0.35417 0.459,-0.71412 0.67334,-1.07952 0.21442,-0.36546 0.41861,-0.73626 0.61236,-1.11208 0.19382,-0.37572 0.37715,-0.75635 0.54984,-1.14153 0.17267,-0.38532 0.33464,-0.77507 0.48576,-1.16892 0.15097,-0.39372 0.29106,-0.7914 0.42013,-1.19269 0.12926,-0.40126 0.24746,-0.80601 0.3545,-1.21388 0.3113,-1.18721 0.52751,-2.39884 0.64699,-3.62562 0.11948,-1.22671 0.14193,-2.46545 0.0672,-3.70675 -0.0748,-1.24124 -0.24667,-2.48188 -0.51418,-3.71244 -0.26746,-1.2307 -0.62995,-2.4482 -1.08469,-3.64318 -0.4548,-1.19488 -1.00069,-2.3642 -1.63349,-3.49902 -0.63259,-1.13484 -1.35049,-2.23232 -2.14819,-3.28403 -0.79796,-1.05164 -1.67369,-2.05483 -2.62051,-3.00189 -0.94675,-0.94721 -1.9622,-1.8359 -3.03858,-2.65927 -1.07625,-0.82328 -2.21068,-1.57917 -3.39462,-2.26187 -1.18413,-0.68265 -2.41475,-1.29037 -3.68247,-1.8185 -1.26756,-0.52819 -2.56898,-0.97547 -3.89433,-1.33842 -1.32543,-0.36295 -2.67142,-0.64065 -4.02766,-0.83095 -1.35628,-0.19029 -2.71936,-0.29269 -4.07882,-0.30645 z m 4.67206,7.20008 c 0.26578,-0.0192 0.53512,-0.015 0.80822,0.0129 0.27311,0.028 0.5495,0.0794 0.82993,0.15451 0.28042,0.0751 0.54537,0.16909 0.79478,0.28112 0.24941,0.11203 0.48338,0.24227 0.70177,0.39119 0.21838,0.14893 0.42137,0.31648 0.60874,0.5023 0.18737,0.18581 0.35938,0.39017 0.51573,0.61288 0.16074,0.22388 0.29314,0.44979 0.3974,0.67851 0.0521,0.11436 0.0974,0.22963 0.13539,0.3452 0.038,0.11557 0.0686,0.23152 0.0925,0.3483 0.0239,0.11678 0.0409,0.23444 0.0506,0.35243 0.01,0.118 0.0126,0.23634 0.008,0.35554 -0.004,0.1192 -0.0161,0.23925 -0.0346,0.35967 -0.0185,0.12041 -0.0439,0.24114 -0.0765,0.36276 -0.0326,0.12163 -0.071,0.23944 -0.11524,0.35295 -0.0442,0.11352 -0.094,0.22274 -0.14986,0.32815 -0.0558,0.10541 -0.11755,0.20708 -0.18501,0.30437 -0.0675,0.0973 -0.14054,0.19038 -0.21962,0.27957 -0.0791,0.0892 -0.16406,0.1742 -0.25476,0.25529 -0.0907,0.0811 -0.18707,0.15853 -0.28939,0.23151 -0.20465,0.14595 -0.43254,0.2756 -0.68368,0.38912 -0.24676,0.11469 -0.49775,0.20561 -0.75293,0.27285 -0.25517,0.0672 -0.51465,0.11045 -0.77824,0.13023 -0.2636,0.0198 -0.53157,0.0158 -0.80357,-0.0119 -0.27201,-0.0277 -0.54795,-0.0789 -0.82838,-0.154 -0.28042,-0.0751 -0.54635,-0.16879 -0.79685,-0.28112 -0.2505,-0.11232 -0.48584,-0.24323 -0.70641,-0.39274 -0.22058,-0.14951 -0.42637,-0.31766 -0.61702,-0.50436 -0.19066,-0.1867 -0.36637,-0.3921 -0.5271,-0.61598 -0.16073,-0.22388 -0.29314,-0.45031 -0.39739,-0.67903 -0.0521,-0.11436 -0.0969,-0.22911 -0.13488,-0.34468 -0.038,-0.11557 -0.0691,-0.23204 -0.093,-0.34882 -0.0239,-0.11678 -0.0409,-0.23392 -0.0506,-0.35191 -0.01,-0.118 -0.0121,-0.23685 -0.008,-0.35606 0.004,-0.1192 0.0156,-0.23873 0.0341,-0.35915 0.0185,-0.12041 0.0439,-0.24166 0.0765,-0.36328 0.0326,-0.12162 0.071,-0.23892 0.11524,-0.35243 0.0442,-0.11352 0.094,-0.22326 0.14986,-0.32867 0.0558,-0.1054 0.11754,-0.20656 0.185,-0.30385 0.0675,-0.0973 0.14106,-0.19038 0.22014,-0.27957 0.0791,-0.0892 0.16355,-0.17472 0.25425,-0.2558 0.0907,-0.0811 0.18758,-0.15802 0.2899,-0.231 0.20465,-0.14595 0.43254,-0.2756 0.68368,-0.38912 0.25114,-0.11352 0.50584,-0.20339 0.7643,-0.26975 0.25846,-0.0664 0.52073,-0.10897 0.78651,-0.12816 z m -3.5667,10.36629 c 0.23686,-0.0164 0.4803,-0.0115 0.73018,0.0155 0.24988,0.027 0.50605,0.0758 0.76895,0.14624 0.2629,0.0704 0.50958,0.15632 0.73949,0.25787 0.22991,0.10155 0.44284,0.21874 0.63975,0.3514 0.19692,0.13265 0.37765,0.28117 0.54157,0.44493 0.16393,0.16377 0.31142,0.34308 0.44235,0.53795 0.13199,0.19095 0.23975,0.38643 0.3235,0.58653 0.0837,0.2001 0.14329,0.40467 0.1788,0.61392 0.0355,0.20925 0.0468,0.4229 0.0341,0.6413 -0.0127,0.2184 -0.0496,0.44166 -0.11058,0.66921 -0.18712,0.69835 -0.41991,1.47882 -0.69815,2.34198 -0.27825,0.86315 -0.60164,1.80907 -0.971,2.83703 -0.36937,1.02796 -0.69328,1.97337 -0.97152,2.83652 -0.27824,0.86315 -0.51103,1.64363 -0.69815,2.34198 -0.23968,0.89451 -0.59814,2.33751 -1.07538,4.32893 -0.45972,1.99613 -0.80935,3.44166 -1.04904,4.33617 -0.061,0.22755 -0.14082,0.43965 -0.23926,0.63614 -0.0984,0.19649 -0.2155,0.37718 -0.3514,0.5426 -0.1359,0.16543 -0.29069,0.31574 -0.46405,0.4501 -0.17337,0.13436 -0.36536,0.25276 -0.57619,0.35605 -0.20978,0.0994 -0.426,0.1777 -0.64906,0.23461 -0.22306,0.0569 -0.45303,0.0925 -0.68936,0.10697 -0.23634,0.0145 -0.47902,0.008 -0.72864,-0.0201 -0.24962,-0.028 -0.50605,-0.0774 -0.76895,-0.14779 -0.26289,-0.0705 -0.50932,-0.15575 -0.73949,-0.25632 -0.23017,-0.10057 -0.44386,-0.21605 -0.6413,-0.34675 -0.19744,-0.13069 -0.37892,-0.27687 -0.54364,-0.4377 -0.16471,-0.16082 -0.31294,-0.33666 -0.44493,-0.52761 -0.13094,-0.19488 -0.23795,-0.39382 -0.32091,-0.59687 -0.083,-0.20304 -0.14175,-0.40993 -0.17674,-0.62115 -0.035,-0.21121 -0.0461,-0.42657 -0.0331,-0.64595 0.013,-0.21938 0.0501,-0.44269 0.11111,-0.67025 0.23968,-0.89451 0.58931,-2.34004 1.04903,-4.33616 0.47724,-1.99143 0.8357,-3.43443 1.07538,-4.32894 0.18713,-0.69835 0.41991,-1.47882 0.69815,-2.34198 0.27825,-0.86315 0.60215,-1.80907 0.97152,-2.83703 0.36936,-1.02796 0.69276,-1.97337 0.971,-2.83652 0.27824,-0.86315 0.51103,-1.64415 0.69815,-2.34249 0.061,-0.22755 0.14057,-0.43908 0.23874,-0.63459 0.0982,-0.19551 0.21499,-0.37501 0.35037,-0.53847 0.13538,-0.16346 0.28941,-0.31041 0.46199,-0.44183 0.17257,-0.13142 0.36383,-0.24686 0.57361,-0.34623 0.21083,-0.1033 0.42779,-0.18509 0.65164,-0.24495 0.22384,-0.0599 0.45456,-0.0978 0.69143,-0.11421 z"
       style="fill:#ffffff;stroke-width:0.264583px"
       id="path41"
       inkscape:export-filename="index_state.png"
       inkscape:export-xdpi="109.20287"
       inkscape:export-ydpi="109.20287" /><rect
       style="fill:none;fill-opacity:1;stroke:#000000;stroke-width:0.1;stroke-linecap:square;stroke-linejoin:bevel;stroke-dasharray:none;stroke-opacity:1"
       id="rect35"
       width="59.444225"
       height="59.444225"
       x="-285.0452"
       y="684.43414"
       inkscape:export-filename="minimize.png"
       inkscape:export-xdpi="109.20287"
       inkscape:export-ydpi="109.20287" /><rect
       style="fill:none;fill-opacity:1;stroke:#000000;stroke-width:0.1;stroke-linecap:square;stroke-linejoin:bevel;stroke-dasharray:none;stroke-opacity:1"
       id="rect36"
       width="59.444225"
       height="59.444225"
       x="-285.0452"
       y="684.43414"
       inkscape:export-filename="minimize.png"
       inkscape:export-xdpi="109.20287"
       inkscape:export-ydpi="109.20287" /><rect
       style="fill:none;fill-opacity:1;stroke:#000000;stroke-width:0.1;stroke-linecap:square;stroke-linejoin:bevel;stroke-dasharray:none;stroke-opacity:1"
       id="rect36-2"
       width="59.444225"
       height="59.444225"
       x="-369.07272"
       y="685.89636"
       inkscape:export-filename="normals.png"
       inkscape:export-xdpi="109.20287"
       inkscape:export-ydpi="109.20287" /><rect
       style="fill:none;fill-opacity:1;stroke:#000000;stroke-width:0.1;stroke-linecap:square;stroke-linejoin:bevel;stroke-dasharray:none;stroke-opacity:1"
       id="rect37"
       width="59.444225"
       height="59.444225"
       x="-285.0452"
       y="772.80499"
       inkscape:export-filename="minimize.png"
       inkscape:export-xdpi="109.20287"
       inkscape:export-ydpi="109.20287" /><rect
       style="fill:none;fill-opacity:1;stroke:#000000;stroke-width:0.1;stroke-linecap:square;stroke-linejoin:bevel;stroke-dasharray:none;stroke-opacity:1"
       id="rect38"
       width="59.444225"
       height="59.444225"
       x="-285.0452"
       y="772.80499"
       inkscape:export-filename="minimize.png"
       inkscape:export-xdpi="109.20287"
       inkscape:export-ydpi="109.20287" /><rect
       style="fill:none;fill-opacity:1;stroke:#000000;stroke-width:0.1;stroke-linecap:square;stroke-linejoin:bevel;stroke-dasharray:none;stroke-opacity:1"
       id="rect39"
       width="59.444225"
       height="59.444225"
       x="-285.0452"
       y="772.80499"
       inkscape:export-filename="minimize.png"
       inkscape:export-xdpi="109.20287"
       inkscape:export-ydpi="109.20287" /><path
       d="m -255.67759,776.10259 c -0.70376,0.40624 -1.35968,0.89018 -1.95535,1.44289 -0.59551,0.55275 -1.12705,1.17064 -1.58461,1.8421 -0.4578,0.6713 -0.83879,1.39192 -1.13576,2.14828 -0.2969,0.75652 -0.50792,1.544 -0.62903,2.34762 -0.12099,0.8035 -0.15137,1.61805 -0.0906,2.42834 0.0607,0.81019 0.21223,1.61101 0.45169,2.38737 0.23947,0.77651 0.5653,1.52369 0.9715,2.22749 0.4064,0.70367 0.89055,1.35948 1.44332,1.9551 0.0476,0.0418 0.0959,0.0829 0.14386,0.12401 l -4.19513,8.02314 -21.86162,-1.73115 3.08741,6.70398 16.94803,2.14711 -3.4605,15.55978 3.08315,6.14791 8.78849,-19.53516 8.04518,0.37446 c 0.0387,0.25397 0.0865,0.5065 0.14319,0.75711 0.23946,0.77652 0.56528,1.52371 0.9715,2.22752 0.4064,0.70366 0.89054,1.35945 1.44331,1.95508 0.55265,0.59553 1.17038,1.12718 1.84165,1.58486 0.67132,0.45782 1.39196,0.83881 2.14832,1.13576 0.75649,0.2969 1.54398,0.50792 2.34758,0.62904 0.80352,0.12098 1.61808,0.15135 2.42838,0.0906 0.81019,-0.0607 1.61097,-0.21222 2.38735,-0.45171 0.7765,-0.23945 1.52369,-0.56529 2.2275,-0.97149 0.70367,-0.4064 1.35946,-0.89053 1.95507,-1.44332 0.59573,-0.55269 1.12751,-1.17054 1.58532,-1.84192 0.45783,-0.6713 0.83878,-1.39193 1.13577,-2.1483 0.29673,-0.75644 0.50759,-1.54382 0.62857,-2.34732 0.12118,-0.8036 0.15169,-1.61825 0.091,-2.42864 -0.0607,-0.81019 -0.21226,-1.61098 -0.45172,-2.38733 -0.23937,-0.77656 -0.56527,-1.52373 -0.97148,-2.2275 -0.1354,-0.23447 -0.27953,-0.46382 -0.43215,-0.68747 -0.15236,-0.2235 -0.31314,-0.44121 -0.48189,-0.65267 -0.16867,-0.21154 -0.34523,-0.41665 -0.52932,-0.61496 -0.18403,-0.19843 -0.37542,-0.38996 -0.57375,-0.57412 -0.1985,-0.18403 -0.40373,-0.36068 -0.61538,-0.52944 -0.21147,-0.16867 -0.42925,-0.32935 -0.65278,-0.48172 -0.2235,-0.15243 -0.45269,-0.29639 -0.687,-0.43162 -0.23438,-0.13537 -0.47374,-0.26191 -0.71757,-0.37937 -0.24392,-0.11742 -0.49216,-0.2257 -0.74419,-0.32452 -0.25182,-0.0989 -0.50726,-0.18846 -0.7658,-0.26833 -0.25853,-0.0798 -0.51995,-0.14981 -0.78372,-0.21 -0.26382,-0.0602 -0.5298,-0.11031 -0.79736,-0.15051 -0.26768,-0.0404 -0.53679,-0.0709 -0.80675,-0.0911 -0.26988,-0.0202 -0.54046,-0.0302 -0.81112,-0.0302 -0.27052,10e-6 -0.54097,0.0101 -0.81076,0.0302 -0.26977,0.0202 -0.5387,0.0505 -0.80621,0.0908 -0.26766,0.0404 -0.53376,0.0905 -0.79765,0.15084 -0.26383,0.0602 -0.52538,0.13028 -0.78391,0.21034 -0.25854,0.0798 -0.51403,0.16912 -0.76588,0.2679 -0.25189,0.0988 -0.49994,0.20694 -0.74368,0.32431 -0.24394,0.11746 -0.48342,0.24399 -0.71796,0.37927 -0.70369,0.4064 -1.35949,0.89054 -1.95509,1.44332 -0.59553,0.55266 -1.12719,1.17038 -1.58484,1.84166 -0.45779,0.67146 -0.83868,1.39224 -1.13553,2.14875 -0.19762,0.55312 -0.35001,1.1214 -0.45569,1.69917 -0.46149,0.0135 -0.91915,0.0181 -1.36402,0.002 -0.24577,-0.009 -0.48831,-0.0227 -0.72676,-0.0419 -0.2384,-0.0192 -0.47307,-0.0442 -0.70257,-0.0747 -0.22947,-0.0304 -0.45411,-0.0664 -0.67306,-0.10874 -0.21893,-0.0424 -0.43197,-0.0909 -0.63877,-0.14611 -0.20676,-0.0552 -0.40719,-0.11764 -0.60019,-0.18665 -0.193,-0.0689 -0.37868,-0.14477 -0.55628,-0.22833 -0.17759,-0.0835 -0.34705,-0.17448 -0.50768,-0.27346 -0.16056,-0.099 -0.3124,-0.20593 -0.45442,-0.3212 -0.14199,-0.11527 -0.27417,-0.23888 -0.39596,-0.37132 -0.12208,-0.13214 -0.23323,-0.27411 -0.33315,-0.42459 -0.0999,-0.15047 -0.18726,-0.30611 -0.2629,-0.46759 -0.0759,-0.1613 -0.14002,-0.32819 -0.19299,-0.49941 -0.0529,-0.17129 -0.0949,-0.34686 -0.12633,-0.52702 -0.0317,-0.1801 -0.053,-0.36443 -0.0644,-0.5524 -0.0116,-0.18794 -0.0133,-0.37971 -0.006,-0.57451 0.007,-0.19482 0.0232,-0.39288 0.0477,-0.59352 0.0245,-0.20064 0.0576,-0.40377 0.0982,-0.60928 0.0406,-0.20551 0.0888,-0.41303 0.14406,-0.62236 0.0551,-0.20937 0.11715,-0.42025 0.18561,-0.63244 0.0685,-0.21215 0.1434,-0.42589 0.22383,-0.63991 0.16087,-0.42802 0.34446,-0.85866 0.54491,-1.28799 0.15939,-0.34132 0.33621,-0.68021 0.5145,-1.01782 0.5377,0.19044 1.08959,0.3382 1.65051,0.44186 0.80358,0.12119 1.61827,0.15171 2.42864,0.091 0.81016,-0.0607 1.61101,-0.21223 2.38734,-0.45169 0.7765,-0.23945 1.5237,-0.56529 2.2275,-0.97148 0.70367,-0.40642 1.35948,-0.89055 1.95511,-1.44333 0.5957,-0.5527 1.12748,-1.17054 1.5853,-1.84192 0.45773,-0.67148 0.83865,-1.39227 1.13548,-2.14878 0.29681,-0.75627 0.50775,-1.5435 0.62886,-2.34687 0.12118,-0.80357 0.15169,-1.61821 0.091,-2.42862 -0.0607,-0.81034 -0.21237,-1.61131 -0.45195,-2.38779 -0.23946,-0.77652 -0.56533,-1.52372 -0.97151,-2.22751 -0.13545,-0.23425 -0.27937,-0.46347 -0.43191,-0.68697 -0.15237,-0.22353 -0.31314,-0.44122 -0.48186,-0.65269 -0.16875,-0.21169 -0.34544,-0.41695 -0.52962,-0.61539 -0.18395,-0.1983 -0.37527,-0.38965 -0.57349,-0.57366 -0.19849,-0.18404 -0.40371,-0.3607 -0.61539,-0.52945 -0.21143,-0.16865 -0.42923,-0.32937 -0.65277,-0.48173 -0.22362,-0.15255 -0.45289,-0.29668 -0.68727,-0.43208 -0.23433,-0.13517 -0.47357,-0.2616 -0.7173,-0.37891 -0.2439,-0.11744 -0.49218,-0.22567 -0.74418,-0.32451 -0.25183,-0.0989 -0.5073,-0.18845 -0.7658,-0.26833 -0.25856,-0.0798 -0.51995,-0.14979 -0.78373,-0.21001 -0.26389,-0.0603 -0.52998,-0.11059 -0.79764,-0.15096 -0.2676,-0.0402 -0.53662,-0.0705 -0.80646,-0.0906 -0.26989,-0.0202 -0.54047,-0.0303 -0.81112,-0.0302 -0.27052,0 -0.54098,0.0101 -0.81077,0.0303 -0.26976,0.0202 -0.53871,0.0505 -0.80621,0.0908 -0.26766,0.0404 -0.53375,0.0905 -0.79765,0.15085 -0.26391,0.0602 -0.52549,0.1302 -0.78419,0.20986 -0.25848,0.0799 -0.51387,0.16939 -0.76563,0.26834 -0.25187,0.0988 -0.49991,0.20692 -0.74365,0.32431 -0.24394,0.11745 -0.48344,0.24395 -0.71798,0.37926 z"
       style="fill:#ffffff;stroke-width:0.717997;stroke-linecap:square"
       id="path49"
       sodipodi:nodetypes="sscsssscccccccccccccsssssscsscssssssscssssssscssssscsscsscccsssssssscscscscssssssccsscsssssscssscsscssssssssssccsss" /><rect
       style="fill:none;fill-opacity:1;stroke:#000000;stroke-width:0.1;stroke-linecap:square;stroke-linejoin:bevel;stroke-dasharray:none;stroke-opacity:1"
       id="rect44"
       width="59.444225"
       height="59.444225"
       x="-126.20691"
       y="766.98413"
       inkscape:export-filename="minimize.png"
       inkscape:export-xdpi="109.20287"
       inkscape:export-ydpi="109.20287" /><path
       d="m -103.42263,768.60787 c -0.49329,0.008 -0.98647,0.0343 -1.47898,0.0791 -0.4925,0.0448 -0.98411,0.10826 -1.47381,0.19017 -0.48969,0.0819 -0.97759,0.1824 -1.46244,0.30179 -0.48486,0.11939 -0.96689,0.25774 -1.44488,0.41496 -0.47798,0.15722 -0.95201,0.33324 -1.4211,0.52865 -0.46908,0.19541 -0.93297,0.40993 -1.39113,0.64389 -0.45816,0.23396 -0.91078,0.48729 -1.35599,0.76016 -0.4452,0.27287 -0.88339,0.56533 -1.31361,0.87747 -0.43022,0.31213 -0.85235,0.64404 -1.26556,0.9958 -0.41321,0.35177 -0.81712,0.72343 -1.21129,1.11518 -0.39417,0.39175 -0.77877,0.80348 -1.15187,1.23558 -0.3731,0.4321 -0.73469,0.88474 -1.08469,1.35754 -0.35,0.4728 -0.68798,0.96615 -1.01286,1.48001 -0.32487,0.51387 -0.6371,1.04823 -0.93482,1.60352 -0.29772,0.5553 -0.58103,1.13151 -0.84956,1.72858 -0.26854,0.59707 -0.52232,1.21494 -0.75965,1.85415 -0.23732,0.63922 -0.45841,1.29956 -0.66249,1.98128 -0.10204,0.34085 -0.19367,0.68084 -0.27492,1.02009 -0.0812,0.33925 -0.15185,0.67792 -0.2129,1.01544 -0.0611,0.33752 -0.11255,0.6741 -0.154,1.00976 -0.0415,0.33565 -0.0732,0.67041 -0.0956,1.00407 -0.0224,0.33366 -0.0352,0.66634 -0.0393,0.99787 -0.004,0.33154 6.9e-4,0.66188 0.0145,0.99116 0.0138,0.32928 0.0367,0.65754 0.0677,0.98443 0.031,0.3269 0.0702,0.6523 0.11782,0.97669 0.0476,0.32438 0.10375,0.64771 0.16743,0.96945 0.0637,0.32174 0.13533,0.64221 0.21446,0.96118 0.0791,0.31897 0.16543,0.63633 0.25942,0.9524 0.094,0.31606 0.19561,0.63058 0.30385,0.94361 0.10825,0.31303 0.22329,0.62444 0.3452,0.93431 0.12191,0.30987 0.25053,0.61843 0.38551,0.92501 0.26995,0.61315 0.56551,1.21928 0.88418,1.81849 0.31868,0.59921 0.66055,1.19137 1.0232,1.7756 0.36264,0.58423 0.74586,1.16089 1.14773,1.72909 0.40186,0.56821 0.8225,1.12782 1.25884,1.67897 0.43633,0.55115 0.88838,1.09372 1.35444,1.62678 0.46605,0.53305 0.94609,1.05652 1.43712,1.57044 0.49102,0.51392 0.99306,1.01831 1.5043,1.51206 0.51124,0.49374 1.03133,0.97698 1.55804,1.44952 0.52672,0.47254 1.05989,0.93412 1.59732,1.38441 0.53743,0.45029 1.07924,0.88919 1.62264,1.3162 0.5434,0.42701 1.08836,0.8422 1.63298,1.24488 0.54462,0.40269 1.08878,0.79315 1.62987,1.17048 0.54109,0.37732 1.0795,0.74151 1.61231,1.09244 0.5328,0.35092 1.05997,0.68833 1.57974,1.01182 0.51978,0.32349 1.03177,0.63309 1.53376,0.92811 0.502,0.29502 0.99435,0.57527 1.473813,0.84077 0.479464,0.26551 0.946182,0.51642 1.398365,0.75138 0.452182,0.23496 0.889846,0.45395 1.309997,0.65732 0.420151,0.20337 0.822759,0.39098 1.206128,0.56173 0.38337,0.17074 0.747501,0.3249 1.089339,0.46198 0.341838,0.13709 0.661491,0.25729 0.957048,0.35967 0.295556,0.10239 0.566795,0.18709 0.81132,0.25373 0.244525,0.0667 0.46238,0.11483 0.651123,0.1447 0.188743,0.0299 0.348245,0.041 0.476457,0.0331 0.0641,-0.004 0.120383,-0.0122 0.168465,-0.0258 0.04808,-0.0136 0.08791,-0.0324 0.119372,-0.0558 0.125857,-0.0936 0.238867,-0.18359 0.338998,-0.27233 0.100131,-0.0888 0.187534,-0.1761 0.263549,-0.26459 0.07602,-0.0885 0.140276,-0.17798 0.193787,-0.27078 0.05351,-0.0928 0.09657,-0.18873 0.129191,-0.29042 0.03262,-0.1017 0.05488,-0.20937 0.06821,-0.32453 0.01333,-0.11516 0.01777,-0.23783 0.01344,-0.37104 -0.0087,-0.2664 -0.05123,-0.57345 -0.120923,-0.93947 -0.139391,-0.73205 -0.387851,-1.70033 -0.694014,-3.05046 -0.153082,-0.67507 -0.320649,-1.4456 -0.496094,-2.33009 -0.175445,-0.8845 -0.358714,-1.88274 -0.543636,-3.01326 0.222811,0.2748 0.475272,0.5488 0.753959,0.82011 0.278686,0.27131 0.583417,0.53987 0.909505,0.8046 0.326088,0.26473 0.673681,0.52527 1.038696,0.78031 0.365016,0.25505 0.747613,0.50446 1.143083,0.74673 0.39547,0.24226 0.803663,0.47744 1.221114,0.70383 0.417452,0.22639 0.843899,0.44423 1.274858,0.65164 0.430959,0.20741 0.866769,0.40429 1.302763,0.58963 0.435993,0.18533 0.872275,0.35919 1.30483,0.51935 0.432554,0.16016 0.86145,0.30684 1.282092,0.43873 0.420641,0.13189 0.832744,0.24881 1.233,0.34933 0.400255,0.10052 0.788223,0.18458 1.159619,0.25063 0.371396,0.0661 0.726337,0.11415 1.0604,0.14263 0.334063,0.0285 0.647604,0.0375 0.93586,0.0253 0.288257,-0.0122 0.551505,-0.0459 0.785482,-0.1018 0.116988,-0.028 0.226316,-0.0613 0.328145,-0.10077 0.10183,-0.0395 0.196025,-0.085 0.281637,-0.13643 0.08561,-0.0514 0.162659,-0.1089 0.230994,-0.17259 0.06833,-0.0637 0.127768,-0.13343 0.177766,-0.20981 0.1,-0.15276 0.178708,-0.2933 0.236679,-0.4253 0.05797,-0.13199 0.09522,-0.25532 0.113171,-0.37414 0.01795,-0.11881 0.01644,-0.23301 -0.0036,-0.34623 -0.02006,-0.11321 -0.05867,-0.22586 -0.114722,-0.34106 -0.05606,-0.11521 -0.129577,-0.23283 -0.219625,-0.3576 -0.09005,-0.12478 -0.196295,-0.2565 -0.318327,-0.39843 -0.244063,-0.28386 -0.550078,-0.6097 -0.910022,-1.00769 -0.359944,-0.39799 -0.77376,-0.86794 -1.233516,-1.44074 -0.229878,-0.2864 -0.471652,-0.59851 -0.72347,-0.93999 -0.251818,-0.34148 -0.513733,-0.71259 -0.785482,-1.11673 -0.271749,-0.40414 -0.553171,-0.84129 -0.842843,-1.31568 -0.289672,-0.47439 -0.587899,-0.98619 -0.893485,-1.53841 -0.305586,-0.55222 -0.618436,-1.1452 -0.937927,-1.78284 -0.319492,-0.63764 -0.645296,-1.31988 -0.976685,-2.05052 0.678106,0.41717 1.329472,0.80762 1.955953,1.17202 0.626481,0.36441 1.22785,0.70272 1.804541,1.017 0.576692,0.31427 1.129043,0.60449 1.65778,0.87126 0.528737,0.26677 1.034085,0.51036 1.516703,0.73226 0.482619,0.2219 0.94246,0.42185 1.380795,0.60151 0.438334,0.17966 0.8552,0.33899 1.251086,0.47904 0.395886,0.14005 0.770757,0.26074 1.126029,0.3638 0.355273,0.10307 0.69068,0.18864 1.007174,0.25735 0.316495,0.0687 0.613934,0.12062 0.893486,0.15761 0.279551,0.037 0.541038,0.0588 0.785481,0.0667 0.244444,0.008 0.471992,0.002 0.683163,-0.0165 0.211171,-0.0186 0.406277,-0.0496 0.586011,-0.092 0.179733,-0.0424 0.343895,-0.0961 0.494026,-0.15968 0.150132,-0.0636 0.28588,-0.13694 0.408244,-0.21911 0.122365,-0.0822 0.231713,-0.17319 0.328145,-0.2713 0.09643,-0.0981 0.180362,-0.2038 0.252698,-0.31523 0.0468,-0.0721 0.08193,-0.15396 0.105937,-0.24598 0.02401,-0.092 0.03669,-0.19387 0.03876,-0.30541 0.0021,-0.11153 -0.0068,-0.23266 -0.02584,-0.36328 -0.01903,-0.13062 -0.04806,-0.27084 -0.08733,-0.42013 -0.07856,-0.29858 -0.196953,-0.63389 -0.3514,-1.00459 -0.154447,-0.3707 -0.344893,-0.77651 -0.568441,-1.21595 -0.223548,-0.43944 -0.479984,-0.91269 -0.765844,-1.41748 -0.285861,-0.5048 -0.601195,-1.04141 -0.942579,-1.60817 -0.682767,-1.13353 -1.470099,-2.38751 -2.334224,-3.74861 -0.864125,-1.36111 -1.805042,-2.82935 -2.796212,-4.39095 -0.99117,-1.5616 -2.032549,-3.21661 -3.096452,-4.95163 -0.531951,-0.86752 -1.069253,-1.75503 -1.609204,-2.66082 -0.53995,-0.90579 -1.082513,-1.82969 -1.623673,-2.77038 -0.541161,-0.94068 -1.081374,-1.89843 -1.616956,-2.87062 -0.535581,-0.97219 -1.066353,-1.9592 -1.589567,-2.95951 -0.261607,-0.50016 -0.538671,-0.98435 -0.829923,-1.45314 -0.291253,-0.4688 -0.596837,-0.92203 -0.915707,-1.35909 -0.31887,-0.43707 -0.650829,-0.85799 -0.995288,-1.26298 -0.344458,-0.40498 -0.701167,-0.79431 -1.069185,-1.16685 -0.368019,-0.37254 -0.747332,-0.72841 -1.136882,-1.06815 -0.38955,-0.33974 -0.789323,-0.66288 -1.198376,-0.96945 -0.409053,-0.30658 -0.82766,-0.59666 -1.254187,-0.86971 -0.426527,-0.27306 -0.861307,-0.52926 -1.30328,-0.76843 -0.441972,-0.23918 -0.891298,-0.46118 -1.346688,-0.66611 -0.455389,-0.20494 -0.9166,-0.39294 -1.383378,-0.56328 -0.466777,-0.17033 -0.938763,-0.32299 -1.4149,-0.45837 -0.476138,-0.13537 -0.956754,-0.2534 -1.440223,-0.35346 -0.483468,-0.10006 -0.970054,-0.18212 -1.458825,-0.2465 -0.48877,-0.0644 -0.9797,-0.11118 -1.47175,-0.13953 -0.49204,-0.0283 -0.98517,-0.0385 -1.47846,-0.0305 z m 2.23087,11.55898 a 7.5770912,4.6772165 75 0 1 1.285713,0.43925 7.5770912,4.6772165 75 0 1 1.24747,0.91261 7.5770912,4.6772165 75 0 1 1.123962,1.32343 7.5770912,4.6772165 75 0 1 0.924491,1.64383 7.5770912,4.6772165 75 0 1 0.661459,1.85311 7.5770912,4.6772165 75 0 1 0.161747,0.68058 7.5770912,4.6772165 75 0 1 0.121439,0.68523 7.5770912,4.6772165 75 0 1 0.08113,0.68368 7.5770912,4.6772165 75 0 1 0.03876,0.67644 7.5770912,4.6772165 75 0 1 -0.0026,0.66353 7.5770912,4.6772165 75 0 1 -0.04496,0.64492 7.5770912,4.6772165 75 0 1 -0.0863,0.62064 7.5770912,4.6772165 75 0 1 -0.127124,0.59169 7.5770912,4.6772165 75 0 1 -0.166915,0.55707 7.5770912,4.6772165 75 0 1 -0.205672,0.5178 7.5770912,4.6772165 75 0 1 -0.241846,0.47439 7.5770912,4.6772165 75 0 1 -0.276469,0.42685 7.5770912,4.6772165 75 0 1 -0.308508,0.37517 7.5770912,4.6772165 75 0 1 -0.337964,0.32091 7.5770912,4.6772165 75 0 1 -0.364836,0.26355 7.5770912,4.6772165 75 0 1 -0.38809,0.20412 7.5770912,4.6772165 75 0 1 -0.40876,0.14314 7.5770912,4.6772165 75 0 1 -1.2361,0.0636 7.5770912,4.6772165 75 0 1 -1.285715,-0.43874 7.5770912,4.6772165 75 0 1 -1.24695,-0.9126 7.5770912,4.6772165 75 0 1 -1.12448,-1.32344 7.5770912,4.6772165 75 0 1 -0.92397,-1.64434 7.5770912,4.6772165 75 0 1 -0.66146,-1.85312 7.5770912,4.6772165 75 0 1 -0.35398,-1.93528 7.5770912,4.6772165 75 0 1 -0.0217,-1.88619 7.5770912,4.6772165 75 0 1 0.31213,-1.7079 7.5770912,4.6772165 75 0 1 0.62373,-1.41387 7.5770912,4.6772165 75 0 1 0.89401,-1.0232 7.5770912,4.6772165 75 0 1 1.10225,-0.56275 7.5770912,4.6772165 75 0 1 1.2361,-0.0641 z m -12.53463,2.05827 a 7.5770912,4.6772165 75 0 1 1.28519,0.43925 7.5770912,4.6772165 75 0 1 1.24747,0.91209 7.5770912,4.6772165 75 0 1 1.12396,1.32343 7.5770912,4.6772165 75 0 1 0.92449,1.64435 7.5770912,4.6772165 75 0 1 0.66146,1.85312 7.5770912,4.6772165 75 0 1 0.16175,0.68006 7.5770912,4.6772165 75 0 1 0.12196,0.68523 7.5770912,4.6772165 75 0 1 0.0806,0.68368 7.5770912,4.6772165 75 0 1 0.0393,0.67644 7.5770912,4.6772165 75 0 1 -0.003,0.66353 7.5770912,4.6772165 75 0 1 -0.045,0.64492 7.5770912,4.6772165 75 0 1 -0.0863,0.62115 7.5770912,4.6772165 75 0 1 -0.12713,0.59169 7.5770912,4.6772165 75 0 1 -0.16691,0.55708 7.5770912,4.6772165 75 0 1 -0.20516,0.51779 7.5770912,4.6772165 75 0 1 -0.24184,0.47439 7.5770912,4.6772165 75 0 1 -0.27647,0.42633 7.5770912,4.6772165 75 0 1 -0.30903,0.37569 7.5770912,4.6772165 75 0 1 -0.33796,0.32039 7.5770912,4.6772165 75 0 1 -0.36484,0.26407 7.5770912,4.6772165 75 0 1 -0.38809,0.20412 7.5770912,4.6772165 75 0 1 -0.40824,0.14263 7.5770912,4.6772165 75 0 1 -1.2361,0.0641 7.5770912,4.6772165 75 0 1 -1.28571,-0.43925 7.5770912,4.6772165 75 0 1 -1.24747,-0.91261 7.5770912,4.6772165 75 0 1 -1.12396,-1.32343 7.5770912,4.6772165 75 0 1 -0.92449,-1.64383 7.5770912,4.6772165 75 0 1 -0.66146,-1.85311 7.5770912,4.6772165 75 0 1 -0.35347,-1.9358 7.5770912,4.6772165 75 0 1 -0.0217,-1.88568 7.5770912,4.6772165 75 0 1 0.31161,-1.70842 7.5770912,4.6772165 75 0 1 0.62425,-1.41387 7.5770912,4.6772165 75 0 1 0.89348,-1.02319 7.5770912,4.6772165 75 0 1 1.10278,-0.56276 7.5770912,4.6772165 75 0 1 1.2361,-0.0636 z"
       style="fill:#ffffff;stroke:#ffffff;stroke-width:0.281687px"
       id="path48" /><path
       style="fill:#ffffff;stroke:#ffffff;stroke-width:0.281687px;stroke-linecap:butt;stroke-linejoin:miter;stroke-opacity:1"
       d="m -28.527994,785.75328 c 6.53068,-21.815 30.6001204,-21.7773 38.97155,-5.7722 8.37142,16.005 18.76047,28.6268 17.26298,30.9336 -1.15738,1.7828 -5.28167,2.0299 -16.13137,-4.6448 5.30223,11.6903 9.2102,10.9909 7.61025,13.4351 -1.59995,2.4443 -12.8592296,-1.7046 -16.4242196,-6.1014 1.47938,9.0441 2.86168,9.6299 0.84797,11.1271 -2.01375,1.4973 -38.6678404,-17.1624 -32.1371604,-38.9774 z"
       id="path46"
       sodipodi:nodetypes="zzzczczz" /><rect
       style="fill:none;fill-opacity:1;stroke:#000000;stroke-width:0.1;stroke-linecap:square;stroke-linejoin:bevel;stroke-dasharray:none;stroke-opacity:1"
       id="rect3"
       width="59.444225"
       height="59.444225"
       x="-367.50253"
       y="774.35913"
       inkscape:export-filename="thickness.png"
       inkscape:export-xdpi="109.20287"
       inkscape:export-ydpi="109.20287" /><rect
       style="fill:none;fill-opacity:1;stroke:#000000;stroke-width:0.1;stroke-linecap:square;stroke-linejoin:bevel;stroke-dasharray:none;stroke-opacity:1"
       id="rect6-9"
       width="59.444225"
       height="59.444225"
       x="-203.94376"
       y="770.78125"
       inkscape:export-filename="backface.png"
       inkscape:export-xdpi="109.20287"
       inkscape:export-ydpi="109.20287" /><path
       d="m -11.070807,688.76671 c -1.37017,-0.0271 -2.73239,0.0328 -4.07623,0.17932 -1.34395,0.14658 -2.66611,0.37937 -3.95635,0.69659 -1.29033,0.31719 -2.54548,0.71802 -3.75584,1.19941 -1.21027,0.48141 -2.37268,1.04215 -3.47834,1.67794 -1.10557,0.63583 -2.15159,1.34509 -3.13005,2.12235 -0.97859,0.77723 -1.88714,1.6205 -2.71869,2.52336 -0.83154,0.90289 -1.58398,1.86307 -2.25154,2.87321 -0.66749,1.00999 -1.24844,2.06749 -1.7384,3.16419 -0.48995,1.0967 -0.88767,2.2299 -1.19011,3.391 -0.30261,1.1611 -0.50915,2.3472 -0.61805,3.5491 -0.10878,1.2018 -0.11966,2.4164 -0.0326,3.6344 0.0872,1.218 0.27215,2.4364 0.55345,3.6458 0.28116,1.2096 0.65798,2.4073 1.12758,3.5837 0.46969,1.1764 1.03095,2.3286 1.67948,3.4479 0.64852,1.1191 1.38265,2.2024 2.19677,3.2417 0.81402,1.0393 1.70599,2.032 2.66909,2.9703 0.35895,0.3215 0.72632,0.6354 1.10174,0.9416 l -8.33386,11.1796 22.38933,-3.8163 c 0.12833,0.033 0.25683,0.066 0.38551,0.098 0.45064,0.1045 0.90311,0.1996 1.35702,0.2853 0.45374,0.086 0.9088,0.1618 1.36477,0.2284 0.45615,0.067 0.91311,0.124 1.37046,0.1716 0.4571903,0.048 0.9146603,0.085 1.3720103,0.1137 0.45753,0.028 0.91483,0.047 1.3715,0.056 0.45649,0.01 0.91223,0.01 1.36684,0 0.45477,-0.01 0.90828,-0.03 1.36012,-0.06 0.45167,-0.03 0.90156,-0.069 1.34927,-0.1179 0.44787,-0.049 0.89345,-0.1072 1.33636,-0.1751 0.44286,-0.068 0.88292,-0.1456 1.31981003,-0.2326 0.43681,-0.087 0.87033,-0.1832 1.30018,-0.2889 0.42988997,-0.1056 0.85599997,-0.2205 1.27795997,-0.3446 0.42211,-0.1244 0.83994,-0.2579 1.25315,-0.4005 0.4131,-0.1425 0.82146,-0.2939 1.22473,-0.4543 0.40322,-0.1603 0.80124,-0.3295 1.19373,-0.5074 0.39247,-0.1782 0.7793,-0.3649 1.16013,-0.5602 0.38102,-0.195 0.75596,-0.3985 1.12448,-0.6103 0.36835,-0.2118 0.73019,-0.4319 1.08521,-0.6599 0.35514,-0.2281 0.70337,-0.4642 1.04438,-0.708 0.3408897,-0.2439 0.6744697,-0.4954 1.0004597,-0.7545 0.3261,-0.2589 0.64452,-0.5253 0.95498,-0.7989 0.31043,-0.2736 0.61283,-0.5542 0.90692,-0.8418 0.29406,-0.2875 0.57974,-0.5818 0.85679,-0.8826 0.27698,-0.3008 0.54526,-0.608 0.8046,-0.9214 0.25954,-0.3135 0.51007,-0.6332 0.75138,-0.9586 0.2412,-0.3253 0.47312,-0.6563 0.69556,-0.9927 0.22235,-0.3367 0.43515,-0.6787 0.63821,-1.0258 0.20328,-0.347 0.39678,-0.699 0.58033,-1.0557 0.18333,-0.3566 0.35667,-0.7178 0.51986,-1.0832 0.1632,-0.3654 0.31621,-0.735 0.45889,-1.1084 0.14286,-0.3735 0.27537,-0.7506 0.39739,-1.1312 0.12182,-0.3806 0.23313,-0.7645 0.33383,-1.1514 0.30261,-1.1611 0.50915,-2.3472 0.61805,-3.5491 0.10878,-1.2018 0.11966,-2.4164 0.0326,-3.6344 -0.0872,-1.218 -0.27215,-2.4364 -0.55345,-3.6458 -0.28116,-1.2096 -0.65798,-2.4073 -1.12758,-3.5838 -0.46971,-1.1762 -1.03097,-2.3282 -1.67948,-3.4473 -0.64849,-1.1193 -1.38262,-2.2028 -2.19677,-3.2422 -0.81402,-1.03935 -1.70599,-2.03201 -2.66909,-2.97034 -0.96319,-0.93814 -1.9950397,-1.81958 -3.0876597,-2.63756 -1.09266,-0.81814 -2.24333,-1.57075 -3.4432,-2.25206 -1.19983,-0.68142 -2.44582,-1.28983 -3.72846,-1.82056 -1.28255997,-0.53061 -2.5985,-0.9822 -3.93774,-1.35134 -1.33938,-0.36905 -2.69867,-0.65469 -4.06745,-0.85473 -1.3688,-0.20009 -2.74363,-0.31406 -4.1139703,-0.34106 z"
       style="fill:#ffffff;stroke-width:1.35139;stroke-linecap:square"
       id="path6" /><text
       xml:space="preserve"
       transform="scale(0.26458333)"
       id="text29"
       style="font-style:normal;font-weight:normal;font-size:40px;line-height:1.25;font-family:sans-serif;white-space:pre;shape-inside:url(#rect30);display:inline;fill:#000000;fill-opacity:1;stroke:none" /><path
       style="font-variation-settings:normal;opacity:1;fill:#ffffff;fill-opacity:1;stroke:#ffffff;stroke-width:5.965;stroke-linecap:butt;stroke-linejoin:miter;stroke-miterlimit:4;stroke-dasharray:none;stroke-dashoffset:0;stroke-opacity:1;marker-start:url(#Dot);marker-end:url(#ArrowTriangleStylized);stop-color:#000000;stop-opacity:1"
       d="m -321.36887,732.87323 -34.85979,-33.83349"
       id="path34"
       sodipodi:nodetypes="cc" /><g
       id="g71"
       transform="translate(26.412054,16.277931)"><path
         style="font-variation-settings:normal;fill:#ffffff;fill-opacity:1;stroke:#ffffff;stroke-width:9.865;stroke-linecap:butt;stroke-linejoin:round;stroke-miterlimit:4;stroke-dasharray:none;stroke-dashoffset:0;stroke-opacity:1;marker-start:url(#CapTriangle);marker-end:url(#marker58);stop-color:#000000"
         d="M -339.48653,812.52531 -389.16299,763.0814"
         id="path34-1"
         sodipodi:nodetypes="cc" /><path
         style="font-variation-settings:normal;fill:#ffffff;fill-opacity:1;stroke:#ffffff;stroke-width:4.348;stroke-linecap:butt;stroke-linejoin:miter;stroke-miterlimit:4;stroke-dasharray:none;stroke-dashoffset:0;stroke-opacity:1;marker-start:url(#ArrowWide);stop-color:#000000"
         d="m -371.92058,795.2333 -18.70597,18.86016"
         id="path57"
         sodipodi:nodetypes="cc" /><path
         style="font-variation-settings:normal;fill:#ffffff;fill-opacity:1;stroke:#ffffff;stroke-width:4.348;stroke-linecap:butt;stroke-linejoin:miter;stroke-miterlimit:4;stroke-dasharray:none;stroke-dashoffset:0;stroke-opacity:1;marker-start:url(#ArrowWide);stop-color:#000000"
         d="m -356.3887,780.2942 18.70598,-18.86019"
         id="path59"
         sodipodi:nodetypes="cc" /></g><rect
       style="fill:none;fill-opacity:1;stroke:#000000;stroke-width:0.1;stroke-linecap:square;stroke-linejoin:bevel;stroke-dasharray:none;stroke-opacity:1"
       id="rect59"
       width="59.444225"
       height="59.444225"
       x="-455.06003"
       y="774.35913"
       inkscape:export-filename="radius.png"
       inkscape:export-xdpi="109.20287"
       inkscape:export-ydpi="109.20287" /><g
       id="g72"
       transform="translate(26.412054,16.277931)"><path
         style="font-variation-settings:normal;fill:#ffffff;fill-opacity:1;stroke:#ffffff;stroke-width:4.348;stroke-linecap:butt;stroke-linejoin:miter;stroke-miterlimit:4;stroke-dasharray:none;stroke-dashoffset:0;stroke-opacity:1;marker-start:url(#ArrowWide);stop-color:#000000"
         d="m -463.37941,799.27843 -15.10452,15.21193"
         id="path62"
         sodipodi:nodetypes="cc" /><path
         style="font-variation-settings:normal;fill:#ffffff;fill-opacity:1;stroke:#ffffff;stroke-width:4.348;stroke-linecap:butt;stroke-linejoin:miter;stroke-miterlimit:4;stroke-dasharray:none;stroke-dashoffset:0;stroke-opacity:1;marker-start:url(#ArrowWide);stop-color:#000000"
         d="m -438.81598,775.05572 13.46749,-13.62171"
         id="path63"
         sodipodi:nodetypes="cc" /><circle
         style="font-variation-settings:normal;opacity:1;fill:#ffffff;fill-opacity:1;stroke:#ffffff;stroke-width:3.1245;stroke-linecap:butt;stroke-linejoin:round;stroke-miterlimit:4;stroke-dasharray:none;stroke-dashoffset:0;stroke-opacity:1;marker-start:url(#CapButt);marker-end:url(#marker39)"
         id="path64"
         cx="-451.03888"
         cy="787.36279"
         r="10.620996" /></g><g
       id="g70"><path
         style="font-variation-settings:normal;fill:#ffffff;fill-opacity:1;stroke:#ffffff;stroke-width:4.348;stroke-linecap:butt;stroke-linejoin:miter;stroke-miterlimit:4;stroke-dasharray:none;stroke-dashoffset:0;stroke-opacity:1;marker-start:url(#ArrowWide-6);stop-color:#000000"
         d="m -177.80628,811.63526 -22.72978,5.73223"
         id="path63-3"
         sodipodi:nodetypes="cc" /><path
         style="fill:#ffffff;stroke:#ffffff;stroke-width:5;stroke-linecap:round;stroke-linejoin:round;stroke-dasharray:none;stroke-opacity:1"
         d="m -183.35625,776.02287 -14.81666,17.83324 46.30208,-16.51033 z"
         id="path69"
         sodipodi:nodetypes="cccc" /><path
         style="fill:none;stroke:#ffffff;stroke-width:5;stroke-linecap:round;stroke-linejoin:round;stroke-dasharray:none;stroke-opacity:1"
         d="m -151.87083,777.34576 -8.65595,46.22218 -23.48928,-34.75986"
         id="path70"
         sodipodi:nodetypes="ccc" /></g><rect
       style="fill:none;fill-opacity:1;stroke:#000000;stroke-width:0.1;stroke-linecap:square;stroke-linejoin:bevel;stroke-dasharray:none;stroke-opacity:1;opacity:0"
       id="rect1"
       width="59.444225"
       height="59.444225"
       x="253.9726"
       y="502.63385"
       inkscape:export-filename="icon_green.png"
       inkscape:export-xdpi="109.20287"
       inkscape:export-ydpi="109.20287" /><path
       d="m 263.03435,510.88523 8.26401,14.3138 -8.26401,14.3138 -8.264,14.3138 h 16.52801 l 4.13233,-7.15656 4.13167,-7.15724 2.06649,3.57896 2.06584,3.57828 4.13167,7.1559 12.39633,-21.4697 12.39635,-21.47104 h -24.79268 z"
       style="fill:#008000;fill-opacity:1;stroke:none;stroke-width:2.73752;stroke-linejoin:bevel"
       id="path2" /><rect
       style="fill:none;fill-opacity:1;stroke:#000000;stroke-width:0.1;stroke-linecap:square;stroke-linejoin:bevel;stroke-dasharray:none;stroke-opacity:1;opacity:0"
       id="rect2"
       width="59.444225"
       height="59.444225"
       x="329.28168"
       y="502.63385"
       inkscape:export-filename="icon_red.png"
       inkscape:export-xdpi="109.20287"
       inkscape:export-ydpi="109.20287" /><path
       d="m 338.34342,510.88523 8.26401,14.3138 -8.26401,14.3138 -8.264,14.3138 h 16.52801 l 4.13233,-7.15656 4.13167,-7.15724 2.06649,3.57896 2.06584,3.57828 4.13167,7.1559 12.39633,-21.4697 12.39635,-21.47104 h -24.79268 z"
       style="fill:#cc0000;fill-opacity:1;stroke:none;stroke-width:2.73752;stroke-linejoin:bevel;font-variation-settings:normal;opacity:1;vector-effect:none;stroke-linecap:butt;stroke-miterlimit:4;stroke-dasharray:none;stroke-dashoffset:0;stroke-opacity:1;-inkscape-stroke:none;stop-color:#000000;stop-opacity:1"
       id="path3" /><rect
       style="fill:none;fill-opacity:1;stroke:#000000;stroke-width:0.1;stroke-linecap:square;stroke-linejoin:bevel;stroke-dasharray:none;stroke-opacity:1;opacity:0"
       id="rect6"
       width="59.444225"
       height="59.444225"
       x="405.43848"
       y="502.63385"
       inkscape:export-filename="icon_black.png"
       inkscape:export-xdpi="109.20287"
       inkscape:export-ydpi="109.20287" /><path
       d="m 414.50023,510.88523 8.26401,14.3138 -8.26401,14.3138 -8.264,14.3138 h 16.52801 l 4.13233,-7.15656 4.13167,-7.15724 2.06649,3.57896 2.06584,3.57828 4.13167,7.1559 12.39633,-21.4697 12.39635,-21.47104 h -24.79268 z"
       style="fill:#1a1a1a;fill-opacity:1;stroke:none;stroke-width:2.73752;stroke-linejoin:bevel"
       id="path7" /></g></svg>
