v -5 -5 0
v -5 5 0
v -5 5 -10
v -5 -5 -10
v 5 -5 -10
v -5 -5 -10
v -5 5 -10
v 5 5 -10
v 5 5 0
v -5 5 0
v 5 5 -10
v -5 5 -10
v 5 -5 0
v -5 -5 0
v -5 -5 -10
v 5 -5 -10
v 5 -5 0
v 5 5 0
v 5 -5 -10
v 5 5 -10
v 5 -5 0
v -5 -5 0
v 5 5 0
v -5 5 0
vn -1 0 0
vn -1 0 0
vn -1 0 0
vn -1 0 0
vn 0 0 -1
vn 0 0 -1
vn 0 0 -1
vn 0 0 -1
vn -1.73472348e-16 1 0
vn -1.73472348e-16 1 0
vn -1.73472348e-16 1 0
vn -1.73472348e-16 1 0
vn 1.73472348e-16 -1 0
vn 1.73472348e-16 -1 0
vn 1.73472348e-16 -1 0
vn 1.73472348e-16 -1 0
vn 1 0 0
vn 1 0 0
vn 1 0 0
vn 1 0 0
vn 0 0 1
vn 0 0 1
vn 0 0 1
vn 0 0 1
f 3//3 1//1 2//2
f 3//3 4//4 1//1
f 8//8 5//5 6//6
f 8//8 6//6 7//7
f 10//10 9//9 11//11
f 10//10 11//11 12//12
f 14//14 15//15 16//16
f 14//14 16//16 13//13
f 20//20 18//18 17//17
f 20//20 17//17 19//19
f 23//23 22//22 21//21
f 23//23 24//24 22//22
